999
dxfrw 0.6.3
  0
SECTION
  2
HEADER
  9
$ACADVER
  1
AC1021
  9
$DWGCODEPAGE
  3
ANSI_1252
  9
$INSBASE
 10
0
 20
0
 30
0
  9
$EXTMIN
 10
75.592631
 20
119.06857
 30
0
  9
$EXTMAX
 10
141.85094
 20
185.25721
 30
0
  9
$LIMMIN
 10
0
 20
0
  9
$LIMMAX
 10
420
 20
297
  9
$ORTHOMODE
 70
    0
  9
$REGENMODE
 70
    1
  9
$FILLMODE
 70
    1
  9
$QTEXTMODE
 70
    0
  9
$MIRRTEXT
 70
    0
  9
$LTSCALE
 40
1
  9
$ATTMODE
 70
    0
  9
$TEXTSIZE
 40
2.5
  9
$TRACEWID
 40
15.68
  9
$TEXTSTYLE
  7
STANDARD
  9
$CLAYER
  8
0
  9
$CELTYPE
  6
BYLAYER
  9
$CECOLOR
 62
  256
  9
$CELTSCALE
 40
1
  9
$DISPSILH
 70
    0
  9
$DIMSCALE
 40
2.5
  9
$DIMASZ
 40
2.5
  9
$DIMEXO
 40
0.625
  9
$DIMDLI
 40
3.75
  9
$DIMRND
 40
0
  9
$DIMDLE
 40
0
  9
$DIMEXE
 40
1.25
  9
$DIMTP
 40
0
  9
$DIMTM
 40
0
  9
$DIMTXT
 40
2.5
  9
$DIMCEN
 40
2.5
  9
$DIMTSZ
 40
0
  9
$DIMTOL
 70
    0
  9
$DIMLIM
 70
    0
  9
$DIMTIH
 70
    0
  9
$DIMTOH
 70
    0
  9
$DIMSE1
 70
    0
  9
$DIMSE2
 70
    0
  9
$DIMTAD
 70
    1
  9
$DIMZIN
 70
    8
  9
$DIMBLK
  1

  9
$DIMASO
 70
    1
  9
$DIMSHO
 70
    1
  9
$DIMPOST
  1

  9
$DIMAPOST
  1

  9
$DIMALT
 70
    0
  9
$DIMALTD
 70
    3
  9
$DIMALTF
 40
0.03937
  9
$DIMLFAC
 40
1
  9
$DIMTOFL
 70
    1
  9
$DIMTVP
 40
0
  9
$DIMTIX
 70
    0
  9
$DIMSOXD
 70
    0
  9
$DIMSAH
 70
    0
  9
$DIMBLK1
  1

  9
$DIMBLK2
  1

  9
$DIMSTYLE
  2
Standard
  9
$DIMCLRD
 70
    0
  9
$DIMCLRE
 70
    0
  9
$DIMCLRT
 70
    0
  9
$DIMTFAC
 40
1
  9
$DIMGAP
 40
0.625
  9
$DIMJUST
 70
    0
  9
$DIMSD1
 70
    0
  9
$DIMSD2
 70
    0
  9
$DIMTOLJ
 70
    0
  9
$DIMTZIN
 70
    8
  9
$DIMALTZ
 70
    0
  9
$DIMALTTZ
 70
    0
  9
$DIMUPT
 70
    0
  9
$DIMDEC
 70
    2
  9
$DIMTDEC
 70
    2
  9
$DIMALTU
 70
    2
  9
$DIMALTTD
 70
    3
  9
$DIMTXSTY
  7
STANDARD
  9
$DIMAUNIT
 70
    0
  9
$DIMADEC
 70
    0
  9
$DIMALTRND
 40
0
  9
$DIMAZIN
 70
    0
  9
$DIMDSEP
 70
   44
  9
$DIMATFIT
 70
    3
  9
$DIMFRAC
 70
    0
  9
$DIMLDRBLK
  1
STANDARD
  9
$DIMLUNIT
 70
    2
  9
$DIMLWD
 70
   -2
  9
$DIMLWE
 70
   -2
  9
$DIMTMOVE
 70
    0
  9
$DIMFXL
 40
1
  9
$DIMFXLON
 70
    0
  9
$DIMJOGANG
 40
0.7854
  9
$DIMTFILL
 70
    0
  9
$DIMTFILLCLR
 70
    0
  9
$DIMARCSYM
 70
    0
  9
$DIMLTYPE
  6

  9
$DIMLTEX1
  6

  9
$DIMLTEX2
  6

  9
$LUNITS
 70
    2
  9
$LUPREC
 70
    4
  9
$SKETCHINC
 40
1
  9
$FILLETRAD
 40
0
  9
$AUNITS
 70
    0
  9
$AUPREC
 70
    2
  9
$MENU
  1
.
  9
$ELEVATION
 40
0
  9
$PELEVATION
 40
0
  9
$THICKNESS
 40
0
  9
$LIMCHECK
 70
    0
  9
$CHAMFERA
 40
0
  9
$CHAMFERB
 40
0
  9
$CHAMFERC
 40
0
  9
$CHAMFERD
 40
0
  9
$SKPOLY
 70
    0
  9
$USRTIMER
 70
    1
  9
$ANGBASE
 50
0
  9
$ANGDIR
 70
    0
  9
$PDMODE
 70
   34
  9
$PDSIZE
 40
0
  9
$PLINEWID
 40
0
  9
$SPLFRAME
 70
    0
  9
$SPLINETYPE
 70
    2
  9
$SPLINESEGS
 70
    8
  9
$HANDSEED
  5
20000
  9
$SURFTAB1
 70
    6
  9
$SURFTAB2
 70
    6
  9
$SURFTYPE
 70
    6
  9
$SURFU
 70
    6
  9
$SURFV
 70
    6
  9
$UCSBASE
  2

  9
$UCSNAME
  2

  9
$UCSORG
 10
0
 20
0
 30
0
  9
$UCSXDIR
 10
1
 20
0
 30
0
  9
$UCSYDIR
 10
0
 20
1
 30
0
  9
$UCSORTHOREF
  2

  9
$UCSORTHOVIEW
 70
    0
  9
$UCSORGTOP
 10
0
 20
0
 30
0
  9
$UCSORGBOTTOM
 10
0
 20
0
 30
0
  9
$UCSORGLEFT
 10
0
 20
0
 30
0
  9
$UCSORGRIGHT
 10
0
 20
0
 30
0
  9
$UCSORGFRONT
 10
0
 20
0
 30
0
  9
$UCSORGBACK
 10
0
 20
0
 30
0
  9
$PUCSBASE
  2

  9
$PUCSNAME
  2

  9
$PUCSORG
 10
0
 20
0
 30
0
  9
$PUCSXDIR
 10
1
 20
0
 30
0
  9
$PUCSYDIR
 10
0
 20
1
 30
0
  9
$PUCSORTHOREF
  2

  9
$PUCSORTHOVIEW
 70
    0
  9
$PUCSORGTOP
 10
0
 20
0
 30
0
  9
$PUCSORGBOTTOM
 10
0
 20
0
 30
0
  9
$PUCSORGLEFT
 10
0
 20
0
 30
0
  9
$PUCSORGRIGHT
 10
0
 20
0
 30
0
  9
$PUCSORGFRONT
 10
0
 20
0
 30
0
  9
$PUCSORGBACK
 10
0
 20
0
 30
0
  9
$USERI1
 70
    0
  9
$USERI2
 70
    0
  9
$USERI3
 70
    0
  9
$USERI4
 70
    0
  9
$USERI5
 70
    0
  9
$USERR1
 40
0
  9
$USERR2
 40
0
  9
$USERR3
 40
0
  9
$USERR4
 40
0
  9
$USERR5
 40
0
  9
$WORLDVIEW
 70
    1
  9
$SHADEDGE
 70
    3
  9
$SHADEDIF
 70
   70
  9
$TILEMODE
 70
    1
  9
$MAXACTVP
 70
   64
  9
$PINSBASE
 10
0
 20
0
 30
0
  9
$PLIMCHECK
 70
    0
  9
$PEXTMIN
 10
0
 20
0
 30
0
  9
$PEXTMAX
 10
0
 20
0
 30
0
  9
$SNAPSTYLE
 70
    0
  9
$PLIMMIN
 10
0
 20
0
  9
$PLIMMAX
 10
210
 20
297
  9
$UNITMODE
 70
    0
  9
$VISRETAIN
 70
    1
  9
$PLINEGEN
 70
    0
  9
$PSLTSCALE
 70
    1
  9
$TREEDEPTH
 70
 3020
  9
$CMLSTYLE
  2
Standard
  9
$CMLJUST
 70
    0
  9
$CMLSCALE
 40
20
  9
$PROXYGRAPHICS
 70
    1
  9
$MEASUREMENT
 70
    1
  9
$CELWEIGHT
370
   -1
  9
$ENDCAPS
280
    0
  9
$JOINSTYLE
280
    0
  9
$LWDISPLAY
290
    0
  9
$INSUNITS
 70
    4
  9
$HYPERLINKBASE
  1

  9
$STYLESHEET
  1

  9
$XEDIT
290
    1
  9
$CEPSNTYPE
380
    0
  9
$PSTYLEMODE
290
    1
  9
$EXTNAMES
290
    1
  9
$PSVPSCALE
 40
1
  9
$OLESTARTUP
290
    0
  9
$SORTENTS
280
  127
  9
$INDEXCTL
280
    0
  9
$HIDETEXT
280
    1
  9
$XCLIPFRAME
290
    0
  9
$HALOGAP
280
    0
  9
$OBSCOLOR
 70
  257
  9
$OBSLTYPE
280
    0
  9
$INTERSECTIONDISPLAY
280
    0
  9
$INTERSECTIONCOLOR
 70
  257
  9
$DIMASSOC
280
    1
  9
$PROJECTNAME
  1

  9
$CAMERADISPLAY
290
    0
  9
$LENSLENGTH
 40
50
  9
$CAMERAHEIGHT
 40
0
  9
$STEPSPERSEC
 40
2
  9
$STEPSIZE
 40
50
  9
$3DDWFPREC
 40
2
  9
$PSOLWIDTH
 40
5
  9
$PSOLHEIGHT
 40
80
  9
$LOFTANG1
 40
1.570796326794897
  9
$LOFTANG2
 40
1.570796326794897
  9
$LOFTMAG1
 40
0
  9
$LOFTMAG2
 40
0
  9
$LOFTPARAM
 70
    7
  9
$LOFTNORMALS
280
    1
  9
$LATITUDE
 40
1
  9
$LONGITUDE
 40
1
  9
$NORTHDIRECTION
 40
0
  9
$TIMEZONE
 70
-8000
  9
$LIGHTGLYPHDISPLAY
280
    1
  9
$TILEMODELIGHTSYNCH
280
    1
  9
$SOLIDHIST
280
    1
  9
$SHOWHIST
280
    1
  9
$DWFFRAME
280
    2
  9
$DGNFRAME
280
    0
  9
$REALWORLDSCALE
290
    1
  9
$INTERFERECOLOR
 62
    1
  9
$CSHADOW
280
    0
  9
$SHADOWPLANELOCATION
 40
0
  0
ENDSEC
  0
SECTION
  2
CLASSES
  0
ENDSEC
  0
SECTION
  2
TABLES
  0
TABLE
  2
VPORT
  5
8
330
0
100
AcDbSymbolTable
 70
    1
  0
VPORT
  5
31
330
2
100
AcDbSymbolTableRecord
100
AcDbViewportTableRecord
  2
*ACTIVE
 70
    0
 10
0
 20
0
 11
1
 21
1
 12
-43.62084259340747
 22
294.5689841013634
 13
0
 23
0
 14
10
 24
10
 15
10
 25
10
 16
0
 26
0
 36
1
 17
0
 27
0
 37
0
 40
840.5992960941346
 41
1.601953601953602
 42
50
 43
0
 44
0
 50
0
 51
0
 71
    0
 72
  100
 73
    1
 74
    3
 75
    0
 76
    1
 77
    0
 78
    0
281
    0
 65
    1
110
0
120
0
130
0
111
1
121
0
131
0
112
0
122
1
132
0
 79
    0
146
0
348
10020
 60
    7
 61
    5
292
1
282
    1
141
0
142
0
 63
  250
421
3358443
  0
ENDTAB
  0
TABLE
  2
LTYPE
  5
5
330
0
100
AcDbSymbolTable
 70
    4
  0
LTYPE
  5
14
330
5
100
AcDbSymbolTableRecord
100
AcDbLinetypeTableRecord
  2
ByBlock
 70
    0
  3

 72
   65
 73
    0
 40
0
  0
LTYPE
  5
15
330
5
100
AcDbSymbolTableRecord
100
AcDbLinetypeTableRecord
  2
ByLayer
 70
    0
  3

 72
   65
 73
    0
 40
0
  0
LTYPE
  5
16
330
5
100
AcDbSymbolTableRecord
100
AcDbLinetypeTableRecord
  2
Continuous
 70
    0
  3
Solid line
 72
   65
 73
    0
 40
0
  0
LTYPE
  5
32
330
5
100
AcDbSymbolTableRecord
100
AcDbLinetypeTableRecord
  2
DOT
 70
    0
  3
Dot . . . . . . . . . . . . . . . . . . . . . .
 72
   65
 73
    2
 40
6.35
 49
0
 74
    0
 49
-6.35
 74
    0
  0
LTYPE
  5
33
330
5
100
AcDbSymbolTableRecord
100
AcDbLinetypeTableRecord
  2
DOTTINY
 70
    0
  3
Dot (.15x) .....................................
 72
   65
 73
    2
 40
0.9525
 49
0
 74
    0
 49
-0.9525
 74
    0
  0
LTYPE
  5
34
330
5
100
AcDbSymbolTableRecord
100
AcDbLinetypeTableRecord
  2
DOT2
 70
    0
  3
Dot (.5x) .....................................
 72
   65
 73
    2
 40
3.175
 49
0
 74
    0
 49
-3.175
 74
    0
  0
LTYPE
  5
35
330
5
100
AcDbSymbolTableRecord
100
AcDbLinetypeTableRecord
  2
DOTX2
 70
    0
  3
Dot (2x) .  .  .  .  .  .  .  .  .  .  .  .  .
 72
   65
 73
    2
 40
12.7
 49
0
 74
    0
 49
-12.7
 74
    0
  0
LTYPE
  5
36
330
5
100
AcDbSymbolTableRecord
100
AcDbLinetypeTableRecord
  2
DASHED
 70
    0
  3
Dashed _ _ _ _ _ _ _ _ _ _ _ _ _ _ _ _ _
 72
   65
 73
    2
 40
19.05
 49
12.7
 74
    0
 49
-6.35
 74
    0
  0
LTYPE
  5
37
330
5
100
AcDbSymbolTableRecord
100
AcDbLinetypeTableRecord
  2
DASHEDTINY
 70
    0
  3
Dashed (.15x) _ _ _ _ _ _ _ _ _ _ _ _ _ _ _ _ _
 72
   65
 73
    2
 40
2.8575
 49
1.905
 74
    0
 49
-0.9525
 74
    0
  0
LTYPE
  5
38
330
5
100
AcDbSymbolTableRecord
100
AcDbLinetypeTableRecord
  2
DASHED2
 70
    0
  3
Dashed (.5x) _ _ _ _ _ _ _ _ _ _ _ _ _ _ _ _ _
 72
   65
 73
    2
 40
9.524999999999999
 49
6.35
 74
    0
 49
-3.175
 74
    0
  0
LTYPE
  5
39
330
5
100
AcDbSymbolTableRecord
100
AcDbLinetypeTableRecord
  2
DASHEDX2
 70
    0
  3
Dashed (2x) ____  ____  ____  ____  ____  ___
 72
   65
 73
    2
 40
38.09999999999999
 49
25.4
 74
    0
 49
-12.7
 74
    0
  0
LTYPE
  5
3A
330
5
100
AcDbSymbolTableRecord
100
AcDbLinetypeTableRecord
  2
DASHDOT
 70
    0
  3
Dash dot __ . __ . __ . __ . __ . __ . __ . __
 72
   65
 73
    4
 40
25.4
 49
12.7
 74
    0
 49
-6.35
 74
    0
 49
0
 74
    0
 49
-6.35
 74
    0
  0
LTYPE
  5
3B
330
5
100
AcDbSymbolTableRecord
100
AcDbLinetypeTableRecord
  2
DASHDOTTINY
 70
    0
  3
Dash dot (.15x) _._._._._._._._._._._._._._._.
 72
   65
 73
    4
 40
3.81
 49
1.905
 74
    0
 49
-0.9525
 74
    0
 49
0
 74
    0
 49
-0.9525
 74
    0
  0
LTYPE
  5
3C
330
5
100
AcDbSymbolTableRecord
100
AcDbLinetypeTableRecord
  2
DASHDOT2
 70
    0
  3
Dash dot (.5x) _._._._._._._._._._._._._._._.
 72
   65
 73
    4
 40
12.7
 49
6.35
 74
    0
 49
-3.175
 74
    0
 49
0
 74
    0
 49
-3.175
 74
    0
  0
LTYPE
  5
3D
330
5
100
AcDbSymbolTableRecord
100
AcDbLinetypeTableRecord
  2
DASHDOTX2
 70
    0
  3
Dash dot (2x) ____  .  ____  .  ____  .  ___
 72
   65
 73
    4
 40
50.8
 49
25.4
 74
    0
 49
-12.7
 74
    0
 49
0
 74
    0
 49
-12.7
 74
    0
  0
LTYPE
  5
3E
330
5
100
AcDbSymbolTableRecord
100
AcDbLinetypeTableRecord
  2
DIVIDE
 70
    0
  3
Divide ____ . . ____ . . ____ . . ____ . . ____
 72
   65
 73
    6
 40
31.75
 49
12.7
 74
    0
 49
-6.35
 74
    0
 49
0
 74
    0
 49
-6.35
 74
    0
 49
0
 74
    0
 49
-6.35
 74
    0
  0
LTYPE
  5
3F
330
5
100
AcDbSymbolTableRecord
100
AcDbLinetypeTableRecord
  2
DIVIDETINY
 70
    0
  3
Divide (.15x) __..__..__..__..__..__..__..__.._
 72
   65
 73
    6
 40
4.7625
 49
1.905
 74
    0
 49
-0.9525
 74
    0
 49
0
 74
    0
 49
-0.9525
 74
    0
 49
0
 74
    0
 49
-0.9525
 74
    0
  0
LTYPE
  5
40
330
5
100
AcDbSymbolTableRecord
100
AcDbLinetypeTableRecord
  2
DIVIDE2
 70
    0
  3
Divide (.5x) __..__..__..__..__..__..__..__.._
 72
   65
 73
    6
 40
15.875
 49
6.35
 74
    0
 49
-3.175
 74
    0
 49
0
 74
    0
 49
-3.175
 74
    0
 49
0
 74
    0
 49
-3.175
 74
    0
  0
LTYPE
  5
41
330
5
100
AcDbSymbolTableRecord
100
AcDbLinetypeTableRecord
  2
DIVIDEX2
 70
    0
  3
Divide (2x) ________  .  .  ________  .  .  _
 72
   65
 73
    6
 40
63.5
 49
25.4
 74
    0
 49
-12.7
 74
    0
 49
0
 74
    0
 49
-12.7
 74
    0
 49
0
 74
    0
 49
-12.7
 74
    0
  0
LTYPE
  5
42
330
5
100
AcDbSymbolTableRecord
100
AcDbLinetypeTableRecord
  2
BORDER
 70
    0
  3
Border __ __ . __ __ . __ __ . __ __ . __ __ .
 72
   65
 73
    6
 40
44.45
 49
12.7
 74
    0
 49
-6.35
 74
    0
 49
12.7
 74
    0
 49
-6.35
 74
    0
 49
0
 74
    0
 49
-6.35
 74
    0
  0
LTYPE
  5
43
330
5
100
AcDbSymbolTableRecord
100
AcDbLinetypeTableRecord
  2
BORDERTINY
 70
    0
  3
Border (.15x) __.__.__.__.__.__.__.__.__.__.__.
 72
   65
 73
    6
 40
6.6675
 49
1.905
 74
    0
 49
-0.9525
 74
    0
 49
1.905
 74
    0
 49
-0.9525
 74
    0
 49
0
 74
    0
 49
-0.9525
 74
    0
  0
LTYPE
  5
44
330
5
100
AcDbSymbolTableRecord
100
AcDbLinetypeTableRecord
  2
BORDER2
 70
    0
  3
Border (.5x) __.__.__.__.__.__.__.__.__.__.__.
 72
   65
 73
    6
 40
22.225
 49
6.35
 74
    0
 49
-3.175
 74
    0
 49
6.35
 74
    0
 49
-3.175
 74
    0
 49
0
 74
    0
 49
-3.175
 74
    0
  0
LTYPE
  5
45
330
5
100
AcDbSymbolTableRecord
100
AcDbLinetypeTableRecord
  2
BORDERX2
 70
    0
  3
Border (2x) ____  ____  .  ____  ____  .  ___
 72
   65
 73
    6
 40
88.89999999999999
 49
25.4
 74
    0
 49
-12.7
 74
    0
 49
25.4
 74
    0
 49
-12.7
 74
    0
 49
0
 74
    0
 49
-12.7
 74
    0
  0
LTYPE
  5
46
330
5
100
AcDbSymbolTableRecord
100
AcDbLinetypeTableRecord
  2
CENTER
 70
    0
  3
Center ____ _ ____ _ ____ _ ____ _ ____ _ ____
 72
   65
 73
    4
 40
50.8
 49
31.75
 74
    0
 49
-6.35
 74
    0
 49
6.35
 74
    0
 49
-6.35
 74
    0
  0
LTYPE
  5
47
330
5
100
AcDbSymbolTableRecord
100
AcDbLinetypeTableRecord
  2
CENTERTINY
 70
    0
  3
Center (.15x) ___ _ ___ _ ___ _ ___ _ ___ _ ___
 72
   65
 73
    4
 40
7.619999999999999
 49
4.7625
 74
    0
 49
-0.9525
 74
    0
 49
0.9525
 74
    0
 49
-0.9525
 74
    0
  0
LTYPE
  5
48
330
5
100
AcDbSymbolTableRecord
100
AcDbLinetypeTableRecord
  2
CENTER2
 70
    0
  3
Center (.5x) ___ _ ___ _ ___ _ ___ _ ___ _ ___
 72
   65
 73
    4
 40
28.575
 49
19.05
 74
    0
 49
-3.175
 74
    0
 49
3.175
 74
    0
 49
-3.175
 74
    0
  0
LTYPE
  5
49
330
5
100
AcDbSymbolTableRecord
100
AcDbLinetypeTableRecord
  2
CENTERX2
 70
    0
  3
Center (2x) ________  __  ________  __  _____
 72
   65
 73
    4
 40
101.6
 49
63.5
 74
    0
 49
-12.7
 74
    0
 49
12.7
 74
    0
 49
-12.7
 74
    0
  0
ENDTAB
  0
TABLE
  2
LAYER
  5
2
330
0
100
AcDbSymbolTable
 70
    1
  0
LAYER
  5
10
330
2
100
AcDbSymbolTableRecord
100
AcDbLayerTableRecord
  2
0
 70
    0
 62
    7
  6
CONTINUOUS
370
    0
390
F
  0
LAYER
  5
4A
330
2
100
AcDbSymbolTableRecord
100
AcDbLayerTableRecord
  2
Layer 1
 70
    0
 62
    7
  6
CONTINUOUS
370
   -3
390
F
  0
ENDTAB
  0
TABLE
  2
STYLE
  5
3
330
0
100
AcDbSymbolTable
 70
    3
  0
STYLE
  5
4B
330
2
100
AcDbSymbolTableRecord
100
AcDbTextStyleTableRecord
  2
Standard
 70
    0
 40
0
 41
1
 50
0
 71
    0
 42
1
  3
txt
  4

  0
ENDTAB
  0
TABLE
  2
VIEW
  5
6
330
0
100
AcDbSymbolTable
 70
    0
  0
ENDTAB
  0
TABLE
  2
UCS
  5
7
330
0
100
AcDbSymbolTable
 70
    0
  0
ENDTAB
  0
TABLE
  2
APPID
  5
9
330
0
100
AcDbSymbolTable
 70
    1
  0
APPID
  5
12
330
9
100
AcDbSymbolTableRecord
100
AcDbRegAppTableRecord
  2
ACAD
 70
    0
  0
APPID
  5
4C
330
9
100
AcDbSymbolTableRecord
100
AcDbRegAppTableRecord
  2
LibreCad
 70
    0
  0
ENDTAB
  0
TABLE
  2
DIMSTYLE
  5
A
330
0
100
AcDbSymbolTable
 70
    1
100
AcDbDimStyleTable
 71
    1
  0
DIMSTYLE
105
4D
330
A
100
AcDbSymbolTableRecord
100
AcDbDimStyleTableRecord
  2
Standard
 70
    0
 40
1
 41
2.5
 42
0.625
 43
0.38
 44
1.25
 45
0
 46
0
 47
0
 48
0
 49
1
140
2.5
141
0.09
142
2.5
143
25.4
144
1
145
0
146
1
147
0.625
148
0
 71
    0
 72
    0
 73
    0
 74
    1
 75
    0
 76
    0
 77
    0
 78
    1
 79
    0
170
    0
171
    2
172
    0
173
    0
174
    0
175
    0
176
    0
177
    0
178
    0
179
    0
271
    2
272
    4
273
    2
274
    2
275
    0
276
    0
277
    2
278
    0
279
    0
280
    0
281
    0
282
    0
283
    1
284
    0
285
    0
286
    0
288
    0
289
    3
340
standard
341

371
   -2
372
   -2
  0
ENDTAB
  0
TABLE
  2
BLOCK_RECORD
  5
1
330
0
100
AcDbSymbolTable
 70
    2
  0
BLOCK_RECORD
  5
1F
330
1
100
AcDbSymbolTableRecord
100
AcDbBlockTableRecord
  2
*Model_Space
 70
    0
280
    1
281
    0
  0
BLOCK_RECORD
  5
1E
330
1
100
AcDbSymbolTableRecord
100
AcDbBlockTableRecord
  2
*Paper_Space
 70
    0
280
    1
281
    0
  0
ENDTAB
  0
ENDSEC
  0
SECTION
  2
BLOCKS
  0
BLOCK
  5
20
330
1F
100
AcDbEntity
  8
0
100
AcDbBlockBegin
  2
*Model_Space
 70
    0
 10
0
 20
0
 30
0
  3
*Model_Space
  1

  0
ENDBLK
  5
21
330
1F
100
AcDbEntity
  8
0
100
AcDbBlockEnd
  0
BLOCK
  5
1C
330
1B
100
AcDbEntity
  8
0
100
AcDbBlockBegin
  2
*Paper_Space
 70
    0
 10
0
 20
0
 30
0
  3
*Paper_Space
  1

  0
ENDBLK
  5
1D
330
1F
100
AcDbEntity
  8
0
100
AcDbBlockEnd
  0
ENDSEC
  0
SECTION
  2
ENTITIES
  0
HATCH
  5
4E
100
AcDbEntity
  8
0
  6
ByLayer
 62
  256
370
   -1
100
AcDbHatch
 10
0
 20
0
 30
0
210
0
220
0
230
1
  2
gost_wood1
 70
    0
 71
    0
 91
    1
 92
    0
 93
  332
 72
    1
 10
-945.7752669499769
 20
-51.67902461802541
 11
-943.6853369499768
 21
-56.55604461802525
 72
    1
 10
-943.6853369499768
 20
-56.55604461802525
 11
-938.8079769499768
 21
-58.64664461802519
 72
    1
 10
-938.8079769499768
 20
-58.64664461802519
 11
-933.9314569499768
 21
-56.55604461802525
 72
    1
 10
-933.9314569499768
 20
-56.55604461802525
 11
-879.5872169499768
 21
-2.211544618025272
 72
    1
 10
-879.5872169499768
 20
-2.211544618025272
 11
-837.7834269499767
 21
-2.211544618025272
 72
    1
 10
-837.7834269499767
 20
-2.211544618025272
 11
-877.4964069499767
 21
-61.43314461802518
 72
    1
 10
-877.4964069499767
 20
-61.43314461802518
 11
-878.5419869499767
 21
-66.22313461802534
 72
    1
 10
-878.5419869499767
 20
-66.22313461802534
 11
-875.4064469499768
 21
-70.49044461802524
 72
    1
 10
-875.4064469499768
 20
-70.49044461802524
 11
-871.9232869499768
 21
-71.88404461802534
 72
    1
 10
-871.9232869499768
 20
-71.88404461802534
 11
-866.3491069499769
 21
-69.09754461802535
 72
    1
 10
-866.3491069499769
 20
-69.09754461802535
 11
-821.7587469499769
 21
-2.211744618025335
 72
    1
 10
-821.7587469499769
 20
-2.211744618025335
 11
-791.7997869499768
 21
-2.211744618025335
 72
    1
 10
-791.7997869499768
 20
-2.211744618025335
 11
-840.5708769499768
 21
-119.2608446180253
 72
    1
 10
-840.5708769499768
 20
-119.2608446180253
 11
-840.6578269499768
 21
-124.5737846180253
 72
    1
 10
-840.6578269499768
 20
-124.5737846180253
 11
-837.0868369499769
 21
-128.3191446180253
 72
    1
 10
-837.0868369499769
 20
-128.3191446180253
 11
-834.3000869499767
 21
-129.0141446180253
 72
    1
 10
-834.3000869499767
 20
-129.0141446180253
 11
-830.6419669499767
 21
-127.9689846180253
 72
    1
 10
-830.6419669499767
 20
-127.9689846180253
 11
-828.0295369499768
 21
-124.8333446180253
 72
    1
 10
-828.0295369499768
 20
-124.8333446180253
 11
-777.1684869499768
 21
-2.210244618025428
 72
    1
 10
-777.1684869499768
 20
-2.210244618025428
 11
-752.7833869499768
 21
-2.210244618025428
 72
    1
 10
-752.7833869499768
 20
-2.210244618025428
 11
-773.6851869499767
 21
-107.4155446180254
 72
    1
 10
-773.6851869499767
 20
-107.4155446180254
 11
-772.7264669499767
 21
-112.2925046180254
 72
    1
 10
-772.7264669499767
 20
-112.2925046180254
 11
-768.1111869499769
 21
-115.0794446180252
 72
    1
 10
-768.1111869499769
 20
-115.0794446180252
 11
-766.7176869499767
 21
-115.0794446180252
 72
    1
 10
-766.7176869499767
 20
-115.0794446180252
 11
-762.1890769499769
 21
-113.5989546180252
 72
    1
 10
-762.1890769499769
 20
-113.5989546180252
 11
-759.7504869499768
 21
-109.5055446180253
 72
    1
 10
-759.7504869499768
 20
-109.5055446180253
 11
-738.1517869499769
 21
-1.513644618025438
 72
    1
 10
-738.1517869499769
 20
-1.513644618025438
 11
-717.2505869499769
 21
-1.513644618025438
 72
    1
 10
-717.2505869499769
 20
-1.513644618025438
 11
-717.2505869499769
 21
-146.4319446180254
 72
    1
 10
-717.2505869499769
 20
-146.4319446180254
 11
-715.3344269499769
 21
-151.2217846180253
 72
    1
 10
-715.3344269499769
 20
-151.2217846180253
 11
-710.2834869499768
 21
-153.3991446180254
 72
    1
 10
-710.2834869499768
 20
-153.3991446180254
 11
-705.2319469499769
 21
-151.4832746180252
 72
    1
 10
-705.2319469499769
 20
-151.4832746180252
 11
-703.3160869499768
 21
-146.4319446180254
 72
    1
 10
-703.3160869499768
 20
-146.4319446180254
 11
-703.3160869499768
 21
-2.210244618025428
 72
    1
 10
-703.3160869499768
 20
-2.210244618025428
 11
-681.0209869499768
 21
-2.210244618025428
 72
    1
 10
-681.0209869499768
 20
-2.210244618025428
 11
-659.4225869499767
 21
-110.2021446180252
 72
    1
 10
-659.4225869499767
 20
-110.2021446180252
 11
-656.9846769499768
 21
-114.2955546180254
 72
    1
 10
-656.9846769499768
 20
-114.2955546180254
 11
-652.4550869499768
 21
-115.7760446180254
 72
    1
 10
-652.4550869499768
 20
-115.7760446180254
 11
-651.0614869499768
 21
-115.7760446180254
 72
    1
 10
-651.0614869499768
 20
-115.7760446180254
 11
-646.7068169499769
 21
-112.9897046180253
 72
    1
 10
-646.7068169499769
 20
-112.9897046180253
 11
-645.4875869499768
 21
-108.1121446180254
 72
    1
 10
-645.4875869499768
 20
-108.1121446180254
 11
-666.3894869499768
 21
-2.906844618025417
 72
    1
 10
-666.3894869499768
 20
-2.906844618025417
 11
-642.0042869499769
 21
-2.906844618025417
 72
    1
 10
-642.0042869499769
 20
-2.906844618025417
 11
-591.1433869499768
 21
-125.5301446180253
 72
    1
 10
-591.1433869499768
 20
-125.5301446180253
 11
-588.5306869499768
 21
-128.6656446180253
 72
    1
 10
-588.5306869499768
 20
-128.6656446180253
 11
-584.872486949977
 21
-129.7107446180253
 72
    1
 10
-584.872486949977
 20
-129.7107446180253
 11
-582.0859869499768
 21
-129.0157446180253
 72
    1
 10
-582.0859869499768
 20
-129.0157446180253
 11
-578.5154169499767
 21
-125.2707346180253
 72
    1
 10
-578.5154169499767
 20
-125.2707346180253
 11
-578.6028869499768
 21
-119.9584446180253
 72
    1
 10
-578.6028869499768
 20
-119.9584446180253
 11
-627.3732869499768
 21
-2.908544618025388
 72
    1
 10
-627.3732869499768
 20
-2.908544618025388
 11
-597.4139869499768
 21
-2.908544618025388
 72
    1
 10
-597.4139869499768
 20
-2.908544618025388
 11
-552.8235869499767
 21
-69.79414461802534
 72
    1
 10
-552.8235869499767
 20
-69.79414461802534
 11
-550.2982769499768
 21
-71.97110461802524
 72
    1
 10
-550.2982769499768
 20
-71.97110461802524
 11
-547.2505869499769
 21
-72.58064461802533
 72
    1
 10
-547.2505869499769
 20
-72.58064461802533
 11
-543.7661869499768
 21
-71.18704461802537
 72
    1
 10
-543.7661869499768
 20
-71.18704461802537
 11
-540.8926769499769
 21
-66.91969461802529
 72
    1
 10
-540.8926769499769
 20
-66.91969461802529
 11
-541.6763869499769
 21
-62.12974461802517
 72
    1
 10
-541.6763869499769
 20
-62.12974461802517
 11
-581.3894869499768
 21
-2.908144618025261
 72
    1
 10
-581.3894869499768
 20
-2.908144618025261
 11
-539.5864869499767
 21
-2.908144618025261
 72
    1
 10
-539.5864869499767
 20
-2.908144618025261
 11
-485.2421869499769
 21
-57.25244461802518
 72
    1
 10
-485.2421869499769
 20
-57.25244461802518
 11
-480.3648869499769
 21
-59.3430446180254
 72
    1
 10
-480.3648869499769
 20
-59.3430446180254
 11
-475.4875869499769
 21
-57.25244461802518
 72
    1
 10
-475.4875869499769
 20
-57.25244461802518
 11
-473.3975669499769
 21
-52.37583461802544
 72
    1
 10
-473.3975669499769
 20
-52.37583461802544
 11
-475.4875869499769
 21
-47.49854461802542
 72
    1
 10
-475.4875869499769
 20
-47.49854461802542
 11
-520.0779869499768
 21
-2.908144618025261
 72
    1
 10
-520.0779869499768
 20
-2.908144618025261
 11
-454.5864869499767
 21
-2.908144618025261
 72
    1
 10
-454.5864869499767
 20
-2.908144618025261
 11
-447.9674969499766
 21
-0.9923446180253848
 72
    1
 10
-447.9674969499766
 20
-0.9923446180253848
 11
-443.4383869499767
 21
4.058455381974824
 72
    1
 10
-443.4383869499767
 20
4.058455381974824
 11
-441.8709669499768
 21
10.67766538197461
 72
    1
 10
-441.8709669499768
 20
10.67766538197461
 11
-443.4383869499767
 21
17.29635538197456
 72
    1
 10
-443.4383869499767
 20
17.29635538197456
 11
-477.5782869499769
 21
73.73135538197474
 72
    1
 10
-477.5782869499769
 20
73.73135538197474
 11
-412.0860869499769
 21
46.55885538197467
 72
    1
 10
-412.0860869499769
 20
46.55885538197467
 11
-409.2994869499769
 21
45.86385538197462
 72
    1
 10
-409.2994869499769
 20
45.86385538197462
 11
-405.6415769499769
 21
46.90890538197479
 72
    1
 10
-405.6415769499769
 20
46.90890538197479
 11
-403.0287869499768
 21
50.04375538197465
 72
    1
 10
-403.0287869499768
 20
50.04375538197465
 11
-402.9417269499767
 21
55.35645538197471
 72
    1
 10
-402.9417269499767
 20
55.35645538197471
 11
-406.5127869499768
 21
59.10165538197461
 72
    1
 10
-406.5127869499768
 20
59.10165538197461
 11
-490.8154869499769
 21
93.93735538197475
 72
    1
 10
-490.8154869499769
 20
93.93735538197475
 11
-513.8072869499767
 21
131.5605553819746
 72
    1
 10
-513.8072869499767
 20
131.5605553819746
 11
-425.3239869499769
 21
114.1427553819746
 72
    1
 10
-425.3239869499769
 20
114.1427553819746
 11
-423.9304869499769
 21
114.1427553819746
 72
    1
 10
-423.9304869499769
 20
114.1427553819746
 11
-419.4015669499767
 21
115.6230953819748
 72
    1
 10
-419.4015669499767
 20
115.6230953819748
 11
-416.9631869499768
 21
119.7157553819746
 72
    1
 10
-416.9631869499768
 20
119.7157553819746
 11
-417.9218369499769
 21
124.5930653819748
 72
    1
 10
-417.9218369499769
 20
124.5930653819748
 11
-422.5371869499768
 21
127.3797553819746
 72
    1
 10
-422.5371869499768
 20
127.3797553819746
 11
-522.8651869499768
 21
147.5849553819747
 72
    1
 10
-522.8651869499768
 20
147.5849553819747
 11
-526.3483869499769
 21
153.1590553819747
 72
    1
 10
-526.3483869499769
 20
153.1590553819747
 11
-510.3239869499769
 21
168.4869553819748
 72
    1
 10
-510.3239869499769
 20
168.4869553819748
 11
-508.2339869499769
 21
170.5769553819748
 72
    1
 10
-508.2339869499769
 20
170.5769553819748
 11
-385.6106869499766
 21
170.5769553819748
 72
    1
 10
-385.6106869499766
 20
170.5769553819748
 11
-380.8205869499768
 21
172.4928053819748
 72
    1
 10
-380.8205869499768
 20
172.4928053819748
 11
-378.6434869499767
 21
177.5442553819748
 72
    1
 10
-378.6434869499767
 20
177.5442553819748
 11
-380.9076969499769
 21
182.5955253819747
 72
    1
 10
-380.9076969499769
 20
182.5955253819747
 11
-386.3075869499768
 21
184.5113553819748
 72
    1
 10
-386.3075869499768
 20
184.5113553819748
 11
-386.3079869499769
 21
184.5113553819748
 72
    1
 10
-386.3079869499769
 20
184.5113553819748
 11
-508.9308869499767
 21
184.5113553819748
 72
    1
 10
-508.9308869499767
 20
184.5113553819748
 11
-510.3244869499768
 21
186.6013553819748
 72
    1
 10
-510.3244869499768
 20
186.6013553819748
 11
-531.2262869499768
 21
206.8065553819746
 72
    1
 10
-531.2262869499768
 20
206.8065553819746
 11
-422.5375869499767
 21
228.4051553819747
 72
    1
 10
-422.5375869499767
 20
228.4051553819747
 11
-418.1829169499767
 21
231.1912453819748
 72
    1
 10
-418.1829169499767
 20
231.1912453819748
 11
-416.9636869499767
 21
236.0691553819747
 72
    1
 10
-416.9636869499767
 20
236.0691553819747
 11
-419.7500469499768
 21
240.4232153819747
 72
    1
 10
-419.7500469499768
 20
240.4232153819747
 11
-424.6274869499766
 21
241.6423553819748
 72
    1
 10
-424.6274869499766
 20
241.6423553819748
 11
-543.7666869499767
 21
217.9538553819746
 72
    1
 10
-543.7666869499767
 20
217.9538553819746
 11
-561.8820869499768
 21
231.8884553819747
 72
    1
 10
-561.8820869499768
 20
231.8884553819747
 11
-407.2097869499767
 21
295.9866553819746
 72
    1
 10
-407.2097869499767
 20
295.9866553819746
 11
-403.6387169499768
 21
299.7315953819747
 72
    1
 10
-403.6387169499768
 20
299.7315953819747
 11
-403.7256869499766
 21
305.0439553819747
 72
    1
 10
-403.7256869499766
 20
305.0439553819747
 11
-407.4706969499767
 21
308.6148953819746
 72
    1
 10
-407.4706969499767
 20
308.6148953819746
 11
-412.7829869499767
 21
308.5278553819746
 72
    1
 10
-412.7829869499767
 20
308.5278553819746
 11
-575.8158869499769
 21
240.2490553819747
 72
    1
 10
-575.8158869499769
 20
240.2490553819747
 11
-581.3898869499767
 21
243.7329553819746
 72
    1
 10
-581.3898869499767
 20
243.7329553819746
 11
-586.2671869499768
 21
252.0936553819747
 72
    1
 10
-586.2671869499768
 20
252.0936553819747
 11
-463.6438869499768
 21
334.3064553819748
 72
    1
 10
-463.6438869499768
 20
334.3064553819748
 11
-460.7700269499768
 21
338.5740353819746
 72
    1
 10
-460.7700269499768
 20
338.5740353819746
 11
-461.5539869499768
 21
343.3637553819746
 72
    1
 10
-461.5539869499768
 20
343.3637553819746
 11
-465.8210769499767
 21
346.2380053819747
 72
    1
 10
-465.8210769499767
 20
346.2380053819747
 11
-470.6112869499769
 21
345.4543553819748
 72
    1
 10
-470.6112869499769
 20
345.4543553819748
 11
-593.2343869499769
 21
263.9376553819745
 72
    1
 10
-593.2343869499769
 20
263.9376553819745
 11
-600.8984869499768
 21
277.1754553819745
 72
    1
 10
-600.8984869499768
 20
277.1754553819745
 11
-475.4879869499767
 21
402.5853553819748
 72
    1
 10
-475.4879869499767
 20
402.5853553819748
 11
-473.3978869499769
 21
407.4622653819746
 72
    1
 10
-473.3978869499769
 20
407.4622653819746
 11
-475.4879869499767
 21
412.3392553819748
 72
    1
 10
-475.4879869499767
 20
412.3392553819748
 11
-480.3651769499767
 21
414.4297353819748
 72
    1
 10
-480.3651769499767
 20
414.4297353819748
 11
-485.2425869499767
 21
412.3392553819748
 72
    1
 10
-485.2425869499767
 20
412.3392553819748
 11
-608.5624869499768
 21
289.0192553819746
 72
    1
 10
-608.5624869499768
 20
289.0192553819746
 11
-617.6194869499768
 21
304.3473553819747
 72
    1
 10
-617.6194869499768
 20
304.3473553819747
 11
-542.3734869499767
 21
417.2166553819745
 72
    1
 10
-542.3734869499767
 20
417.2166553819745
 11
-541.3284669499768
 21
422.0064353819747
 72
    1
 10
-541.3284669499768
 20
422.0064353819747
 11
-544.4634869499769
 21
426.2737553819749
 72
    1
 10
-544.4634869499769
 20
426.2737553819749
 11
-549.2537869499768
 21
427.3189053819748
 72
    1
 10
-549.2537869499768
 20
427.3189053819748
 11
-553.5214869499769
 21
424.1838553819748
 72
    1
 10
-553.5214869499769
 20
424.1838553819748
 11
-625.2835869499768
 21
316.8885553819747
 72
    1
 10
-625.2835869499768
 20
316.8885553819747
 11
-637.1275869499768
 21
336.3970553819747
 72
    1
 10
-637.1275869499768
 20
336.3970553819747
 11
-579.9965869499767
 21
475.0440553819748
 72
    1
 10
-579.9965869499767
 20
475.0440553819748
 11
-579.9093969499768
 21
480.3568453819746
 72
    1
 10
-579.9093969499768
 20
480.3568453819746
 11
-583.4798869499768
 21
484.1020553819748
 72
    1
 10
-583.4798869499768
 20
484.1020553819748
 11
-588.7925169499767
 21
484.1891553819748
 72
    1
 10
-588.7925169499767
 20
484.1891553819748
 11
-592.5377869499769
 21
480.6180553819747
 72
    1
 10
-592.5377869499769
 20
480.6180553819747
 11
-646.1854869499768
 21
351.7250553819748
 72
    1
 10
-646.1854869499768
 20
351.7250553819748
 11
-663.6030869499768
 21
380.2901553819747
 72
    1
 10
-663.6030869499768
 20
380.2901553819747
 11
-646.8818869499768
 21
463.8968553819747
 72
    1
 10
-646.8818869499768
 20
463.8968553819747
 11
-647.8405269499768
 21
468.7738553819746
 72
    1
 10
-647.8405269499768
 20
468.7738553819746
 11
-652.4551869499769
 21
471.5607553819747
 72
    1
 10
-652.4551869499769
 20
471.5607553819747
 11
-657.3324569499767
 21
470.6021053819746
 72
    1
 10
-657.3324569499767
 20
470.6021053819746
 11
-660.1191869499767
 21
465.9867553819747
 72
    1
 10
-660.1191869499767
 20
465.9867553819747
 11
-674.0537869499767
 21
397.0113553819748
 72
    1
 10
-674.0537869499767
 20
397.0113553819748
 11
-699.8320869499769
 21
438.8150553819746
 72
    1
 10
-699.8320869499769
 20
438.8150553819746
 11
-704.0127869499768
 21
442.9948553819746
 72
    1
 10
-704.0127869499768
 20
442.9948553819746
 11
-704.0127869499768
 21
501.5198553819748
 72
    1
 10
-704.0127869499768
 20
501.5198553819748
 11
-705.9286869499767
 21
506.3097953819748
 72
    1
 10
-705.9286869499767
 20
506.3097953819748
 11
-710.9801869499768
 21
508.4872553819746
 72
    1
 10
-710.9801869499768
 20
508.4872553819746
 11
-716.0312969499768
 21
506.5710153819747
 72
    1
 10
-716.0312969499768
 20
506.5710153819747
 11
-717.9474869499768
 21
501.5198553819748
 72
    1
 10
-717.9474869499768
 20
501.5198553819748
 11
-717.9474869499768
 21
442.2982553819746
 72
    1
 10
-717.9474869499768
 20
442.2982553819746
 11
-722.1273869499769
 21
438.1184553819746
 72
    1
 10
-722.1273869499769
 20
438.1184553819746
 11
-747.2098869499769
 21
396.3145553819747
 72
    1
 10
-747.2098869499769
 20
396.3145553819747
 11
-761.1437869499769
 21
465.2901553819747
 72
    1
 10
-761.1437869499769
 20
465.2901553819747
 11
-763.9301769499768
 21
469.6449153819747
 72
    1
 10
-763.9301769499768
 20
469.6449153819747
 11
-768.8077869499768
 21
470.8641553819747
 72
    1
 10
-768.8077869499768
 20
470.8641553819747
 11
-773.1624769499768
 21
468.0777453819748
 72
    1
 10
-773.1624769499768
 20
468.0777453819748
 11
-774.3817869499769
 21
463.2002553819747
 72
    1
 10
-774.3817869499769
 20
463.2002553819747
 11
-757.6604869499768
 21
379.5933553819747
 72
    1
 10
-757.6604869499768
 20
379.5933553819747
 11
-775.0783869499769
 21
351.0275553819746
 72
    1
 10
-775.0783869499769
 20
351.0275553819746
 11
-828.0294169499768
 21
479.9213553819748
 72
    1
 10
-828.0294169499768
 20
479.9213553819748
 11
-831.7742469499768
 21
483.4923953819747
 72
    1
 10
-831.7742469499768
 20
483.4923953819747
 11
-837.0865969499768
 21
483.4054553819748
 72
    1
 10
-837.0865969499768
 20
483.4054553819748
 11
-840.6575869499768
 21
479.6603053819747
 72
    1
 10
-840.6575869499768
 20
479.6603053819747
 11
-840.5706469499768
 21
474.3473553819747
 72
    1
 10
-840.5706469499768
 20
474.3473553819747
 11
-783.4390869499769
 21
335.6997553819748
 72
    1
 10
-783.4390869499769
 20
335.6997553819748
 11
-795.2835869499768
 21
316.8885553819747
 72
    1
 10
-795.2835869499768
 20
316.8885553819747
 11
-867.0457069499769
 21
424.1838553819748
 72
    1
 10
-867.0457069499769
 20
424.1838553819748
 11
-871.3131169499768
 21
427.0575353819747
 72
    1
 10
-871.3131169499768
 20
427.0575353819747
 11
-876.1030369499769
 21
426.2737553819749
 72
    1
 10
-876.1030369499769
 20
426.2737553819749
 11
-878.9773069499768
 21
422.0064253819747
 72
    1
 10
-878.9773069499768
 20
422.0064253819747
 11
-878.1936769499767
 21
417.2166553819745
 72
    1
 10
-878.1936769499767
 20
417.2166553819745
 11
-802.9474369499767
 21
304.3473553819747
 72
    1
 10
-802.9474369499767
 20
304.3473553819747
 11
-812.0047269499769
 21
289.0192553819746
 72
    1
 10
-812.0047269499769
 20
289.0192553819746
 11
-934.6278869499769
 21
411.6426553819748
 72
    1
 10
-934.6278869499769
 20
411.6426553819748
 11
-939.5048869499768
 21
413.7330553819747
 72
    1
 10
-939.5048869499768
 20
413.7330553819747
 11
-944.3817669499767
 21
411.6426553819748
 72
    1
 10
-944.3817669499767
 20
411.6426553819748
 11
-946.4723169499769
 21
406.7656053819748
 72
    1
 10
-946.4723169499769
 20
406.7656053819748
 11
-944.3817669499767
 21
401.8885553819747
 72
    1
 10
-944.3817669499767
 20
401.8885553819747
 11
-818.9721169499768
 21
276.4788553819745
 72
    1
 10
-818.9721169499768
 20
276.4788553819745
 11
-826.6359869499769
 21
263.2410553819745
 72
    1
 10
-826.6359869499769
 20
263.2410553819745
 11
-949.2591369499768
 21
345.4543553819748
 72
    1
 10
-949.2591369499768
 20
345.4543553819748
 11
-954.0490669499768
 21
346.4993053819746
 72
    1
 10
-954.0490669499768
 20
346.4993053819746
 11
-958.3164269499769
 21
343.3637553819746
 72
    1
 10
-958.3164269499769
 20
343.3637553819746
 11
-959.3614269499768
 21
338.5740353819746
 72
    1
 10
-959.3614269499768
 20
338.5740353819746
 11
-956.2264669499768
 21
334.3064553819748
 72
    1
 10
-956.2264669499768
 20
334.3064553819748
 11
-833.6033769499768
 21
252.0936553819747
 72
    1
 10
-833.6033769499768
 20
252.0936553819747
 11
-838.4797969499767
 21
243.7329553819746
 72
    1
 10
-838.4797969499767
 20
243.7329553819746
 11
-844.0538669499769
 21
240.2490553819747
 72
    1
 10
-844.0538669499769
 20
240.2490553819747
 11
-1007.086696949977
 21
307.8312553819746
 72
    1
 10
-1007.086696949977
 20
307.8312553819746
 11
-1012.399326949977
 21
307.9183253819748
 72
    1
 10
-1012.399326949977
 20
307.9183253819748
 11
-1016.143986949977
 21
304.3473553819747
 72
    1
 10
-1016.143986949977
 20
304.3473553819747
 11
-1016.231336949977
 21
299.0349153819745
 72
    1
 10
-1016.231336949977
 20
299.0349153819745
 11
-1012.660666949977
 21
295.2900553819746
 72
    1
 10
-1012.660666949977
 20
295.2900553819746
 11
-857.9884069499768
 21
231.1918553819747
 72
    1
 10
-857.9884069499768
 20
231.1918553819747
 11
-876.1030369499769
 21
217.2572553819747
 72
    1
 10
-876.1030369499769
 20
217.2572553819747
 11
-995.2428569499768
 21
240.9457553819748
 72
    1
 10
-995.2428569499768
 20
240.9457553819748
 11
-1000.119906949977
 21
239.9870853819748
 72
    1
 10
-1000.119906949977
 20
239.9870853819748
 11
-1002.906776949977
 21
235.3718553819748
 72
    1
 10
-1002.906776949977
 20
235.3718553819748
 11
-1001.947666949977
 21
230.4950553819747
 72
    1
 10
-1001.947666949977
 20
230.4950553819747
 11
-997.3328069499769
 21
227.7077553819747
 72
    1
 10
-997.3328069499769
 20
227.7077553819747
 11
-888.6441569499767
 21
206.1100553819746
 72
    1
 10
-888.6441569499767
 20
206.1100553819746
 11
-909.5461469499769
 21
185.9047553819748
 72
    1
 10
-909.5461469499769
 20
185.9047553819748
 11
-911.6361069499768
 21
184.5112553819747
 72
    1
 10
-911.6361069499768
 20
184.5112553819747
 11
-1034.259246949977
 21
184.5112553819747
 72
    1
 10
-1034.259246949977
 20
184.5112553819747
 11
-1039.049156949977
 21
182.5951553819748
 72
    1
 10
-1039.049156949977
 20
182.5951553819748
 11
-1041.226576949977
 21
177.5440553819747
 72
    1
 10
-1041.226576949977
 20
177.5440553819747
 11
-1039.310376949977
 21
172.4925953819748
 72
    1
 10
-1039.310376949977
 20
172.4925953819748
 11
-1034.259246949977
 21
170.5766553819747
 72
    1
 10
-1034.259246949977
 20
170.5766553819747
 11
-911.6361069499768
 21
170.5766553819747
 72
    1
 10
-911.6361069499768
 20
170.5766553819747
 11
-909.5461469499769
 21
168.4867553819747
 72
    1
 10
-909.5461469499769
 20
168.4867553819747
 11
-893.5217069499768
 21
153.1589553819747
 72
    1
 10
-893.5217069499768
 20
153.1589553819747
 11
-897.0050269499768
 21
147.5848553819746
 72
    1
 10
-897.0050269499768
 20
147.5848553819746
 11
-998.0295869499769
 21
127.3795553819748
 72
    1
 10
-998.0295869499769
 20
127.3795553819748
 11
-1002.384356949977
 21
124.5935153819748
 72
    1
 10
-1002.384356949977
 20
124.5935153819748
 11
-1003.603536949977
 21
119.7156553819748
 72
    1
 10
-1003.603536949977
 20
119.7156553819748
 11
-1001.165746949977
 21
115.6229453819746
 72
    1
 10
-1001.165746949977
 20
115.6229453819746
 11
-996.6363869499769
 21
114.1425553819748
 72
    1
 10
-996.6363869499769
 20
114.1425553819748
 11
-995.2430269499769
 21
114.1425553819748
 72
    1
 10
-995.2430269499769
 20
114.1425553819748
 11
-907.4555069499768
 21
131.5604553819746
 72
    1
 10
-907.4555069499768
 20
131.5604553819746
 11
-929.7506869499769
 21
93.93715538197469
 72
    1
 10
-929.7506869499769
 20
93.93715538197469
 11
-1012.660836949977
 21
59.79815538197457
 72
    1
 10
-1012.660836949977
 20
59.79815538197457
 11
-1016.231506949977
 21
56.05317538197468
 72
    1
 10
-1016.231506949977
 20
56.05317538197468
 11
-1016.144156949977
 21
50.7408553819748
 72
    1
 10
-1016.144156949977
 20
50.7408553819748
 11
-1013.531666949977
 21
47.60535538197459
 72
    1
 10
-1013.531666949977
 20
47.60535538197459
 11
-1009.874276949977
 21
46.56025538197483
 72
    1
 10
-1009.874276949977
 20
46.56025538197483
 11
-1007.086866949977
 21
47.25525538197459
 72
    1
 10
-1007.086866949977
 20
47.25525538197459
 11
-941.5953769499768
 21
74.42785538197469
 72
    1
 10
-941.5953769499768
 20
74.42785538197469
 11
-975.7343969499768
 21
17.99275538197477
 72
    1
 10
-975.7343969499768
 20
17.99275538197477
 11
-977.5631569499768
 21
11.37411538197469
 72
    1
 10
-977.5631569499768
 20
11.37411538197469
 11
-975.7343969499768
 21
4.755555381974688
 72
    1
 10
-975.7343969499768
 20
4.755555381974688
 11
-970.9445169499769
 21
-0.2957246180251616
 72
    1
 10
-970.9445169499769
 20
-0.2957246180251616
 11
-964.5871569499768
 21
-2.211544618025272
 72
    1
 10
-964.5871569499768
 20
-2.211544618025272
 11
-899.0949869499768
 21
-2.211544618025272
 72
    1
 10
-899.0949869499768
 20
-2.211544618025272
 11
-943.6853369499768
 21
-46.80214461802521
 72
    1
 10
-943.6853369499768
 20
-46.80214461802521
 11
-945.7752669499769
 21
-51.67902461802541
 72
    1
 10
-785.4311269499769
 20
145.7017453819746
 11
-790.1543269499768
 21
161.0392253819747
 72
    1
 10
-790.1543269499768
 20
161.0392253819747
 11
-791.7994869499768
 21
177.5442553819748
 72
    1
 10
-791.7994869499768
 20
177.5442553819748
 11
-790.1257569499768
 21
194.0492253819748
 72
    1
 10
-790.1257569499768
 20
194.0492253819748
 11
-785.3331669499768
 21
209.3866653819747
 72
    1
 10
-785.3331669499768
 20
209.3866653819747
 11
-777.7646069499767
 21
223.2381453819748
 72
    1
 10
-777.7646069499767
 20
223.2381453819748
 11
-767.7629569499768
 21
235.2852453819746
 72
    1
 10
-767.7629569499768
 20
235.2852453819746
 11
-755.6711369499769
 21
245.2095153819748
 72
    1
 10
-755.6711369499769
 20
245.2095153819748
 11
-741.8320169499768
 21
252.6925253819747
 72
    1
 10
-741.8320169499768
 20
252.6925253819747
 11
-726.5885069499768
 21
257.4158553819747
 72
    1
 10
-726.5885069499768
 20
257.4158553819747
 11
-710.2834869499768
 21
259.0610553819748
 72
    1
 10
-710.2834869499768
 20
259.0610553819748
 11
-693.9784869499767
 21
257.3872753819746
 72
    1
 10
-693.9784869499767
 20
257.3872753819746
 11
-678.7348969499769
 21
252.5945653819748
 72
    1
 10
-678.7348969499769
 20
252.5945653819748
 11
-664.8956369499768
 21
245.0258353819747
 72
    1
 10
-664.8956369499768
 20
245.0258353819747
 11
-652.8036369499767
 21
235.0240153819748
 72
    1
 10
-652.8036369499767
 20
235.0240153819748
 11
-642.8018069499768
 21
222.9320253819746
 72
    1
 10
-642.8018069499768
 20
222.9320253819746
 11
-635.2330769499767
 21
209.0927853819748
 72
    1
 10
-635.2330769499767
 20
209.0927853819748
 11
-630.4403669499768
 21
193.8492253819747
 72
    1
 10
-630.4403669499768
 20
193.8492253819747
 11
-628.766586949977
 21
177.5442553819748
 72
    1
 10
-628.766586949977
 20
177.5442553819748
 11
-628.766586949977
 21
177.5442553819748
 72
    1
 10
-628.766586949977
 20
177.5442553819748
 11
-630.4117869499769
 21
161.2392253819748
 72
    1
 10
-630.4117869499769
 20
161.2392253819748
 11
-635.1351169499767
 21
145.9956253819747
 72
    1
 10
-635.1351169499767
 20
145.9956253819747
 11
-642.6181369499768
 21
132.1563653819747
 72
    1
 10
-642.6181369499768
 20
132.1563653819747
 11
-652.5424069499768
 21
120.0643653819746
 72
    1
 10
-652.5424069499768
 20
120.0643653819746
 11
-664.5895169499768
 21
110.0625553819746
 72
    1
 10
-664.5895169499768
 20
110.0625553819746
 11
-678.4410169499768
 21
102.4938353819748
 72
    1
 10
-678.4410169499768
 20
102.4938353819748
 11
-693.7784869499768
 21
97.70112538197466
 72
    1
 10
-693.7784869499768
 20
97.70112538197466
 11
-710.2834869499768
 21
96.02735538197479
 72
    1
 10
-710.2834869499768
 20
96.02735538197479
 11
-726.7885069499767
 21
97.6725553819746
 72
    1
 10
-726.7885069499767
 20
97.6725553819746
 11
-742.1258969499768
 21
102.3958753819748
 72
    1
 10
-742.1258969499768
 20
102.3958753819748
 11
-755.9772569499768
 21
109.8788753819748
 72
    1
 10
-755.9772569499768
 20
109.8788753819748
 11
-768.0241869499769
 21
119.8031453819748
 72
    1
 10
-768.0241869499769
 20
119.8031453819748
 11
-777.9482769499768
 21
131.8502453819748
 72
    1
 10
-777.9482769499768
 20
131.8502453819748
 11
-785.4311269499769
 21
145.7017453819746
 72
    1
 10
-941.5953769499768
 20
24.26525538197481
 11
-874.0132569499768
 21
135.7411553819746
 72
    1
 10
-874.0132569499768
 20
135.7411553819746
 11
-843.0416069499768
 21
113.3479253819748
 72
    1
 10
-843.0416069499768
 20
113.3479253819748
 11
-824.5961469499769
 21
102.2452153819746
 72
    1
 10
-824.5961469499769
 20
102.2452153819746
 11
-804.4279569499768
 21
91.93448538197472
 72
    1
 10
-804.4279569499768
 20
91.93448538197472
 11
-782.7248269499768
 21
82.96277538197458
 72
    1
 10
-782.7248269499768
 20
82.96277538197458
 11
-759.6745169499768
 21
75.87712538197465
 72
    1
 10
-759.6745169499768
 20
75.87712538197465
 11
-735.4648169499768
 21
71.22456538197483
 72
    1
 10
-735.4648169499768
 20
71.22456538197483
 11
-710.2834869499768
 21
69.55215538197464
 72
    1
 10
-710.2834869499768
 20
69.55215538197464
 11
-685.1021969499768
 21
71.19599538197477
 72
    1
 10
-685.1021969499768
 20
71.19599538197477
 11
-660.8924769499768
 21
75.77914538197476
 72
    1
 10
-660.8924769499768
 20
75.77914538197476
 11
-637.8421269499768
 21
82.77907538197482
 72
    1
 10
-637.8421269499768
 20
82.77907538197482
 11
-616.1389469499768
 21
91.6732153819747
 72
    1
 10
-616.1389469499768
 20
91.6732153819747
 11
-595.970746949977
 21
101.9390453819746
 72
    1
 10
-595.970746949977
 20
101.9390453819746
 11
-577.5253169499769
 21
113.0540053819747
 72
    1
 10
-577.5253169499769
 20
113.0540053819747
 11
-546.5539869499769
 21
135.7411553819746
 72
    1
 10
-546.5539869499769
 20
135.7411553819746
 11
-478.9719869499767
 21
24.26525538197481
 72
    1
 10
-478.9719869499767
 20
24.26525538197481
 11
-941.5953769499768
 21
24.26525538197481
 72
    1
 10
-625.9800869499768
 20
266.7241553819748
 11
-645.8148869499769
 21
273.9638153819748
 72
    1
 10
-645.8148869499769
 20
273.9638153819748
 11
-666.5641369499767
 21
279.7010453819747
 72
    1
 10
-666.5641369499767
 20
279.7010453819747
 11
-688.0972169499768
 21
283.4786553819747
 72
    1
 10
-688.0972169499768
 20
283.4786553819747
 11
-710.2834869499768
 21
284.8394553819746
 72
    1
 10
-710.2834869499768
 20
284.8394553819746
 11
-732.7636269499769
 21
283.4786553819747
 72
    1
 10
-732.7636269499769
 20
283.4786553819747
 11
-754.2639569499768
 21
279.7010453819747
 72
    1
 10
-754.2639569499768
 20
279.7010453819747
 11
-774.8499369499768
 21
273.9638153819748
 72
    1
 10
-774.8499369499768
 20
273.9638153819748
 11
-794.5869869499768
 21
266.7241553819748
 72
    1
 10
-794.5869869499768
 20
266.7241553819748
 11
-710.2834869499768
 21
406.0692553819747
 72
    1
 10
-710.2834869499768
 20
406.0692553819747
 11
-625.9800869499768
 21
266.7241553819748
 72
    1
 10
-850.0630469499768
 20
204.3680653819747
 11
-827.1037569499767
 21
220.2618953819747
 72
    1
 10
-827.1037569499767
 20
220.2618953819747
 11
-800.1602169499768
 21
235.3718553819748
 72
    1
 10
-800.1602169499768
 20
235.3718553819748
 11
-807.5848769499769
 21
222.2213553819746
 72
    1
 10
-807.5848769499769
 20
222.2213553819746
 11
-813.0499169499768
 21
208.0257753819747
 72
    1
 10
-813.0499169499768
 20
208.0257753819747
 11
-816.4247269499767
 21
193.0463453819748
 72
    1
 10
-816.4247269499767
 20
193.0463453819748
 11
-817.5786869499768
 21
177.5442553819748
 72
    1
 10
-817.5786869499768
 20
177.5442553819748
 11
-816.4247269499767
 21
161.7481853819747
 72
    1
 10
-816.4247269499767
 20
161.7481853819747
 11
-813.0499169499768
 21
146.8013153819747
 72
    1
 10
-813.0499169499768
 20
146.8013153819747
 11
-807.5848769499769
 21
132.7687953819746
 72
    1
 10
-807.5848769499769
 20
132.7687953819746
 11
-800.1602169499768
 21
119.7157553819746
 72
    1
 10
-800.1602169499768
 20
119.7157553819746
 11
-827.1037569499767
 21
134.8262453819747
 72
    1
 10
-827.1037569499767
 20
134.8262453819747
 11
-850.0630469499768
 21
150.7202953819747
 72
    1
 10
-850.0630469499768
 20
150.7202953819747
 11
-881.6771769499768
 21
177.5442553819748
 72
    1
 10
-881.6771769499768
 20
177.5442553819748
 11
-881.6771769499768
 21
177.5442553819748
 72
    1
 10
-881.6771769499768
 20
177.5442553819748
 11
-850.0630469499768
 21
204.3680653819747
 72
    1
 10
-612.9818769499768
 20
132.8667553819746
 11
-607.5169769499769
 21
147.0625453819746
 72
    1
 10
-607.5169769499769
 20
147.0625453819746
 11
-604.1422369499769
 21
162.0420653819748
 72
    1
 10
-604.1422369499769
 20
162.0420653819748
 11
-602.9882869499768
 21
177.5442553819748
 72
    1
 10
-602.9882869499768
 20
177.5442553819748
 11
-604.1422369499769
 21
193.3402253819746
 72
    1
 10
-604.1422369499769
 20
193.3402253819746
 11
-607.5169769499769
 21
208.2870053819748
 72
    1
 10
-607.5169769499769
 20
208.2870053819748
 11
-612.9818769499768
 21
222.3193153819746
 72
    1
 10
-612.9818769499768
 20
222.3193153819746
 11
-620.4062869499768
 21
235.3718553819748
 72
    1
 10
-620.4062869499768
 20
235.3718553819748
 11
-593.7673869499768
 21
220.2618953819747
 72
    1
 10
-593.7673869499768
 20
220.2618953819747
 11
-570.8517269499769
 21
204.3680653819747
 72
    1
 10
-570.8517269499769
 20
204.3680653819747
 11
-552.5084169499767
 21
189.5192353819748
 72
    1
 10
-552.5084169499767
 20
189.5192353819748
 11
-539.5865869499769
 21
177.5442553819748
 72
    1
 10
-539.5865869499769
 20
177.5442553819748
 11
-552.4103769499768
 21
165.5691953819748
 72
    1
 10
-552.4103769499768
 20
165.5691953819748
 11
-570.5904269499769
 21
150.7202953819747
 72
    1
 10
-570.5904269499769
 20
150.7202953819747
 11
-593.4734869499769
 21
134.8262453819747
 72
    1
 10
-593.4734869499769
 20
134.8262453819747
 11
-620.4062869499768
 21
119.7157553819746
 72
    1
 10
-620.4062869499768
 20
119.7157553819746
 11
-620.4062869499768
 21
119.7157553819746
 72
    1
 10
-620.4062869499768
 20
119.7157553819746
 11
-612.9818769499768
 21
132.8667553819746
 97
    0
 75
    0
 76
    1
 52
1.570796326794897
 41
1.5
 77
    0
 78
    0
 98
    0
  0
LWPOLYLINE
  5
4F
100
AcDbEntity
  8
0
  6
ByLayer
 62
  256
370
   -1
100
AcDbPolyline
 90
  240
 70
    1
 43
0
 10
85.137762
 20
129.240582
 10
85.346755
 20
128.75288
 10
85.834491
 20
128.54382
 10
86.322143
 20
128.75288
 10
91.756567
 20
134.18733
 10
95.93694600000001
 20
134.18733
 10
91.965648
 20
128.26517
 10
91.86109
 20
127.786171
 10
92.174644
 20
127.35944
 10
92.52296
 20
127.22008
 10
93.080378
 20
127.49873
 10
97.53941399999999
 20
134.18731
 10
100.53531
 20
134.18731
 10
95.65820100000001
 20
122.4824
 10
95.649506
 20
121.951106
 10
96.00660499999999
 20
121.57657
 10
96.28528
 20
121.50707
 10
96.65109200000001
 20
121.611586
 10
96.912335
 20
121.92515
 10
101.99844
 20
134.18746
 10
104.43695
 20
134.18746
 10
102.34677
 20
123.66693
 10
102.442642
 20
123.179234
 10
102.90417
 20
122.90054
 10
103.04352
 20
122.90054
 10
103.496381
 20
123.048589
 10
103.74024
 20
123.45793
 10
105.90011
 20
134.25712
 10
107.99023
 20
134.25712
 10
107.99023
 20
119.76529
 10
108.181846
 20
119.286306
 10
108.68694
 20
119.06857
 10
109.192094
 20
119.260157
 10
109.38368
 20
119.76529
 10
109.38368
 20
134.18746
 10
111.61319
 20
134.18746
 10
113.77303
 20
123.38827
 10
114.016821
 20
122.978929
 10
114.46978
 20
122.83088
 10
114.60914
 20
122.83088
 10
115.044607
 20
123.109514
 10
115.16653
 20
123.59727
 10
113.07634
 20
134.1178
 10
115.51486
 20
134.1178
 10
120.60095
 20
121.85547
 10
120.86222
 20
121.54192
 10
121.22804
 20
121.43741
 10
121.50669
 20
121.50691
 10
121.863747
 20
121.881411
 10
121.855
 20
122.41264
 10
116.97796
 20
134.11763
 10
119.97389
 20
134.11763
 10
124.43293
 20
127.42907
 10
124.685461
 20
127.211374
 10
124.99023
 20
127.15042
 10
125.33867
 20
127.28978
 10
125.626021
 20
127.716515
 10
125.54765
 20
128.19551
 10
121.57634
 20
134.11767
 10
125.75664
 20
134.11767
 10
131.19107
 20
128.68324
 10
131.6788
 20
128.47418
 10
132.16653
 20
128.68324
 10
132.375532
 20
129.170901
 10
132.16653
 20
129.65863
 10
127.70749
 20
134.11767
 10
134.25664
 20
134.11767
 10
134.918539
 20
134.30925
 10
135.37145
 20
134.81433
 10
135.528192
 20
135.476251
 10
135.37145
 20
136.13812
 10
131.95746
 20
141.78162
 10
138.50668
 20
139.06437
 10
138.78534
 20
138.99487
 10
139.151131
 20
139.099375
 10
139.41241
 20
139.41286
 10
139.421116
 20
139.94413
 10
139.06401
 20
140.31865
 10
130.63374
 20
143.80222
 10
128.33456
 20
147.56454
 10
137.18289
 20
145.82276
 10
137.32224
 20
145.82276
 10
137.775132
 20
145.970794
 10
138.01897
 20
146.38006
 10
137.923105
 20
146.867791
 10
137.46157
 20
147.14646
 10
127.42877
 20
149.16698
 10
127.08045
 20
149.72439
 10
128.68289
 20
151.25718
 10
128.89189
 20
151.46618
 10
141.15422
 20
151.46618
 10
141.63323
 20
151.657765
 10
141.85094
 20
152.16291
 10
141.624519
 20
152.668037
 10
141.08453
 20
152.85962
 10
141.08449
 20
152.85962
 10
128.8222
 20
152.85962
 10
128.68284
 20
153.06862
 10
126.59266
 20
155.08914
 10
137.46153
 20
157.249
 10
137.896997
 20
157.527609
 10
138.01892
 20
158.0154
 10
137.740284
 20
158.450806
 10
137.25254
 20
158.57272
 10
125.33862
 20
156.20387
 10
123.52708
 20
157.59733
 10
138.99431
 20
164.00715
 10
139.351417
 20
164.381644
 10
139.34272
 20
164.91288
 10
138.968219
 20
165.269974
 10
138.43699
 20
165.26127
 10
122.1337
 20
158.43339
 10
121.5763
 20
158.78178
 10
121.08857
 20
159.61785
 10
133.3509
 20
167.83913
 10
133.638286
 20
168.265888
 10
133.55989
 20
168.74486
 10
133.133181
 20
169.032285
 10
132.65416
 20
168.95392
 10
120.39185
 20
160.80225
 10
119.62544
 20
162.12603
 10
132.16649
 20
174.66702
 10
132.3755
 20
175.154711
 10
132.16649
 20
175.64241
 10
131.678771
 20
175.851458
 10
131.19103
 20
175.64241
 10
118.85904
 20
163.31041
 10
117.95334
 20
164.84322
 10
125.47794
 20
176.13015
 10
125.582442
 20
176.609128
 10
125.26894
 20
177.03586
 10
124.78991
 20
177.140375
 10
124.36314
 20
176.82687
 10
117.18693
 20
166.09734
 10
116.00253
 20
168.04819
 10
121.71563
 20
181.91289
 10
121.724349
 20
182.444169
 10
121.3673
 20
182.81869
 10
120.836037
 20
182.8274
 10
120.46151
 20
182.47029
 10
115.09674
 20
169.58099
 10
113.35498
 20
172.4375
 10
115.0271
 20
180.79817
 10
114.931236
 20
181.28587
 10
114.46977
 20
181.56456
 10
113.982043
 20
181.468695
 10
113.70337
 20
181.00716
 10
112.30991
 20
174.10962
 10
109.73208
 20
178.28999
 10
109.31401
 20
178.70797
 10
109.31401
 20
184.56047
 10
109.12242
 20
185.039464
 10
108.61727
 20
185.25721
 10
108.112159
 20
185.065586
 10
107.92054
 20
184.56047
 10
107.92054
 20
178.63831
 10
107.50255
 20
178.22033
 10
104.9943
 20
174.03994
 10
103.60091
 20
180.9375
 10
103.322271
 20
181.372976
 10
102.83451
 20
181.4949
 10
102.399041
 20
181.216259
 10
102.27711
 20
180.72851
 10
103.94924
 20
172.36782
 10
102.20745
 20
169.51124
 10
96.912347
 20
182.40062
 10
96.537864
 20
182.757724
 10
96.006629
 20
182.74903
 10
95.64953
 20
182.374515
 10
95.658224
 20
181.84322
 10
101.37138
 20
167.97846
 10
100.18693
 20
166.09734
 10
93.010718
 20
176.82687
 10
92.583977
 20
177.114238
 10
92.104985
 20
177.03586
 10
91.81755800000001
 20
176.609127
 10
91.895921
 20
176.13015
 10
99.420545
 20
164.84322
 10
98.514816
 20
163.31041
 10
86.2525
 20
175.57275
 10
85.76479999999999
 20
175.78179
 10
85.277112
 20
175.57275
 10
85.068057
 20
175.085045
 10
85.277112
 20
174.59734
 10
97.818077
 20
162.05637
 10
97.05168999999999
 20
160.73259
 10
84.78937500000001
 20
168.95392
 10
84.310382
 20
169.058415
 10
83.883646
 20
168.74486
 10
83.779146
 20
168.265888
 10
84.092642
 20
167.83913
 10
96.354951
 20
159.61785
 10
95.86730900000001
 20
158.78178
 10
95.30990199999999
 20
158.43339
 10
79.006619
 20
165.19161
 10
78.475356
 20
165.200317
 10
78.10089000000001
 20
164.84322
 10
78.09215500000001
 20
164.311976
 10
78.44922200000001
 20
163.93749
 10
93.916448
 20
157.52767
 10
92.104985
 20
156.13421
 10
80.19100299999999
 20
158.50306
 10
79.703298
 20
158.407193
 10
79.424611
 20
157.94567
 10
79.520522
 20
157.45799
 10
79.98200799999999
 20
157.17926
 10
90.85087300000001
 20
155.01949
 10
88.76067399999999
 20
152.99896
 10
88.551678
 20
152.85961
 10
76.28936400000001
 20
152.85961
 10
75.810373
 20
152.668
 10
75.592631
 20
152.16289
 10
75.784251
 20
151.657744
 10
76.28936400000001
 20
151.46615
 10
88.551678
 20
151.46615
 10
88.76067399999999
 20
151.25716
 10
90.363118
 20
149.72438
 10
90.014786
 20
149.16697
 10
79.91233
 20
147.14644
 10
79.47685300000001
 20
146.867836
 10
79.354935
 20
146.38005
 10
79.598714
 20
145.970779
 10
80.05165
 20
145.82274
 10
80.190986
 20
145.82274
 10
88.96973800000001
 20
147.56453
 10
86.74021999999999
 20
143.8022
 10
78.44920500000001
 20
140.3883
 10
78.09213800000001
 20
140.013802
 10
78.10087300000001
 20
139.48257
 10
78.362122
 20
139.16902
 10
78.727861
 20
139.06451
 10
79.006602
 20
139.13401
 10
85.555751
 20
141.85127
 10
82.14184899999999
 20
136.20776
 10
81.958973
 20
135.545896
 10
82.14184899999999
 20
134.88404
 10
82.62083699999999
 20
134.378912
 10
83.256573
 20
134.18733
 10
89.80579
 20
134.18733
 10
85.346755
 20
129.72827
  0
LWPOLYLINE
  5
50
100
AcDbEntity
  8
0
  6
ByLayer
 62
  256
370
   -1
100
AcDbPolyline
 90
   33
 70
    1
 43
0
 10
101.172176
 20
148.978659
 10
100.699856
 20
150.512407
 10
100.53534
 20
152.16291
 10
100.702713
 20
153.813407
 10
101.181972
 20
155.347151
 10
101.938828
 20
156.732299
 10
102.938993
 20
157.937009
 10
104.148175
 20
158.929436
 10
105.532087
 20
159.677737
 10
107.056438
 20
160.15007
 10
108.68694
 20
160.31459
 10
110.31744
 20
160.147212
 10
111.841799
 20
159.667941
 10
113.225725
 20
158.911068
 10
114.434925
 20
157.910886
 10
115.435108
 20
156.701687
 10
116.191981
 20
155.317763
 10
116.671252
 20
153.793407
 10
116.83863
 20
152.16291
 10
116.83863
 20
152.16291
 10
116.67411
 20
150.532407
 10
116.201777
 20
149.008047
 10
115.453475
 20
147.624121
 10
114.461048
 20
146.414921
 10
113.256337
 20
145.41474
 10
111.871187
 20
144.657868
 10
110.33744
 20
144.178597
 10
108.68694
 20
144.01122
 10
107.036438
 20
144.17574
 10
105.502699
 20
144.648072
 10
104.117563
 20
145.396372
 10
102.91287
 20
146.388799
 10
101.920461
 20
147.593509
  0
LWPOLYLINE
  5
51
100
AcDbEntity
  8
0
  6
ByLayer
 62
  256
370
   -1
100
AcDbPolyline
 90
   17
 70
    1
 43
0
 10
85.555751
 20
136.83501
 10
92.313963
 20
147.9826
 10
95.41112800000001
 20
145.743277
 10
97.255674
 20
144.633006
 10
99.272493
 20
143.601933
 10
101.442806
 20
142.704762
 10
103.747837
 20
141.996197
 10
106.168807
 20
141.530941
 10
108.68694
 20
141.3637
 10
111.205069
 20
141.528084
 10
113.626041
 20
141.986399
 10
115.931076
 20
142.686392
 10
118.101394
 20
143.575806
 10
120.118214
 20
144.602389
 10
121.962757
 20
145.713885
 10
125.05989
 20
147.9826
 10
131.81809
 20
136.83501
  0
LWPOLYLINE
  5
52
100
AcDbEntity
  8
0
  6
ByLayer
 62
  256
370
   -1
100
AcDbPolyline
 90
   66
 70
    1
 43
0
 10
113.260085
 20
151.222081
 10
112.98809
 20
150.345844
 10
112.557705
 20
149.552911
 10
111.987701
 20
148.862054
 10
111.29685
 20
148.292043
 10
110.503922
 20
147.861649
 10
109.627688
 20
147.589645
 10
108.68692
 20
147.4948
 10
107.771975
 20
147.585322
 10
106.900533
 20
147.850131
 10
106.09708
 20
148.279083
 10
105.386106
 20
148.862036
 10
104.803153
 20
149.57301
 10
104.374201
 20
150.376463
 10
104.109392
 20
151.247905
 10
104.01887
 20
152.16285
 10
104.113711
 20
153.103621
 10
104.385714
 20
153.979858
 10
104.816106
 20
154.77279
 10
105.386117
 20
155.463644
 10
106.076975
 20
156.033651
 10
106.869909
 20
156.464038
 10
107.746148
 20
156.736035
 10
108.68692
 20
156.83087
 10
109.627684
 20
156.736026
 10
110.503915
 20
156.464024
 10
111.296841
 20
156.033634
 10
111.987691
 20
155.463627
 10
112.557695
 20
154.772774
 10
112.988081
 20
153.979846
 10
113.26008
 20
153.103615
 10
113.35492
 20
152.16285
 10
113.35492
 20
152.16285
 10
113.260085
 20
151.222081
 10
112.98809
 20
150.345844
 10
112.557705
 20
149.552911
 10
111.987701
 20
148.862054
 10
111.29685
 20
148.292043
 10
110.503922
 20
147.861649
 10
109.627688
 20
147.589645
 10
108.68692
 20
147.4948
 10
107.771975
 20
147.585322
 10
106.900533
 20
147.850131
 10
106.09708
 20
148.279083
 10
105.386106
 20
148.862036
 10
104.803153
 20
149.57301
 10
104.374201
 20
150.376463
 10
104.109392
 20
151.247905
 10
104.01887
 20
152.16285
 10
104.113711
 20
153.103621
 10
104.385714
 20
153.979858
 10
104.816106
 20
154.77279
 10
105.386117
 20
155.463644
 10
106.076975
 20
156.033651
 10
106.869909
 20
156.464038
 10
107.746148
 20
156.736035
 10
108.68692
 20
156.83087
 10
109.627684
 20
156.736026
 10
110.503915
 20
156.464024
 10
111.296841
 20
156.033634
 10
111.987691
 20
155.463627
 10
112.557695
 20
154.772774
 10
112.988081
 20
153.979846
 10
113.26008
 20
153.103615
 10
113.35492
 20
152.16285
 10
113.35492
 20
152.16285
  0
LWPOLYLINE
  5
53
100
AcDbEntity
  8
0
  6
ByLayer
 62
  256
370
   -1
100
AcDbPolyline
 90
   10
 70
    1
 43
0
 10
117.11728
 20
161.0809
 10
115.1338
 20
161.804866
 10
113.058875
 20
162.378589
 10
110.905567
 20
162.75635
 10
108.68694
 20
162.89243
 10
106.438926
 20
162.75635
 10
104.288893
 20
162.378589
 10
102.230295
 20
161.804866
 10
100.25659
 20
161.0809
 10
108.68694
 20
175.01541
  0
LWPOLYLINE
  5
54
100
AcDbEntity
  8
0
  6
ByLayer
 62
  256
370
   -1
100
AcDbPolyline
 90
   15
 70
    1
 43
0
 10
94.708984
 20
154.845291
 10
97.004913
 20
156.434674
 10
99.69926700000001
 20
157.94567
 10
98.956801
 20
156.63062
 10
98.410297
 20
155.211062
 10
98.072816
 20
153.713119
 10
97.95742
 20
152.16291
 10
98.072816
 20
150.583303
 10
98.410297
 20
149.088616
 10
98.956801
 20
147.685364
 10
99.69926700000001
 20
146.38006
 10
97.004913
 20
147.891109
 10
94.708984
 20
149.480514
 10
91.547571
 20
152.16291
 10
91.547571
 20
152.16291
  0
LWPOLYLINE
  5
55
100
AcDbEntity
  8
0
  6
ByLayer
 62
  256
370
   -1
100
AcDbPolyline
 90
   17
 70
    1
 43
0
 10
118.417101
 20
147.69516
 10
118.963591
 20
149.114739
 10
119.301065
 20
150.612691
 10
119.41646
 20
152.16291
 10
119.301065
 20
153.742507
 10
118.963591
 20
155.237185
 10
118.417101
 20
156.640416
 10
117.67466
 20
157.94567
 10
120.33855
 20
156.434674
 10
122.630116
 20
154.845291
 10
124.464447
 20
153.360408
 10
125.75663
 20
152.16291
 10
124.474251
 20
150.965404
 10
122.656246
 20
149.480514
 10
120.36794
 20
147.891109
 10
117.67466
 20
146.38006
 10
117.67466
 20
146.38006
  0
LWPOLYLINE
  5
56
100
AcDbEntity
  8
0
  6
ByLayer
 62
  256
370
   -1
100
AcDbPolyline
 90
  240
 70
    1
 43
0
 10
-945.7752669499769
 20
-51.67902461802541
 10
-943.6853369499768
 20
-56.55604461802525
 10
-938.8079769499768
 20
-58.64664461802519
 10
-933.9314569499768
 20
-56.55604461802525
 10
-879.5872169499768
 20
-2.211544618025272
 10
-837.7834269499767
 20
-2.211544618025272
 10
-877.4964069499767
 20
-61.43314461802518
 10
-878.5419869499767
 20
-66.22313461802534
 10
-875.4064469499768
 20
-70.49044461802524
 10
-871.9232869499768
 20
-71.88404461802534
 10
-866.3491069499769
 20
-69.09754461802535
 10
-821.7587469499769
 20
-2.211744618025335
 10
-791.7997869499768
 20
-2.211744618025335
 10
-840.5708769499768
 20
-119.2608446180253
 10
-840.6578269499768
 20
-124.5737846180253
 10
-837.0868369499769
 20
-128.3191446180253
 10
-834.3000869499767
 20
-129.0141446180253
 10
-830.6419669499767
 20
-127.9689846180253
 10
-828.0295369499768
 20
-124.8333446180253
 10
-777.1684869499768
 20
-2.210244618025428
 10
-752.7833869499768
 20
-2.210244618025428
 10
-773.6851869499767
 20
-107.4155446180254
 10
-772.7264669499767
 20
-112.2925046180254
 10
-768.1111869499769
 20
-115.0794446180252
 10
-766.7176869499767
 20
-115.0794446180252
 10
-762.1890769499769
 20
-113.5989546180252
 10
-759.7504869499768
 20
-109.5055446180253
 10
-738.1517869499769
 20
-1.513644618025438
 10
-717.2505869499769
 20
-1.513644618025438
 10
-717.2505869499769
 20
-146.4319446180254
 10
-715.3344269499769
 20
-151.2217846180253
 10
-710.2834869499768
 20
-153.3991446180254
 10
-705.2319469499769
 20
-151.4832746180252
 10
-703.3160869499768
 20
-146.4319446180254
 10
-703.3160869499768
 20
-2.210244618025428
 10
-681.0209869499768
 20
-2.210244618025428
 10
-659.4225869499767
 20
-110.2021446180252
 10
-656.9846769499768
 20
-114.2955546180254
 10
-652.4550869499768
 20
-115.7760446180254
 10
-651.0614869499768
 20
-115.7760446180254
 10
-646.7068169499769
 20
-112.9897046180253
 10
-645.4875869499768
 20
-108.1121446180254
 10
-666.3894869499768
 20
-2.906844618025417
 10
-642.0042869499769
 20
-2.906844618025417
 10
-591.1433869499768
 20
-125.5301446180253
 10
-588.5306869499768
 20
-128.6656446180253
 10
-584.872486949977
 20
-129.7107446180253
 10
-582.0859869499768
 20
-129.0157446180253
 10
-578.5154169499767
 20
-125.2707346180253
 10
-578.6028869499768
 20
-119.9584446180253
 10
-627.3732869499768
 20
-2.908544618025388
 10
-597.4139869499768
 20
-2.908544618025388
 10
-552.8235869499767
 20
-69.79414461802534
 10
-550.2982769499768
 20
-71.97110461802524
 10
-547.2505869499769
 20
-72.58064461802533
 10
-543.7661869499768
 20
-71.18704461802537
 10
-540.8926769499769
 20
-66.91969461802529
 10
-541.6763869499769
 20
-62.12974461802517
 10
-581.3894869499768
 20
-2.908144618025261
 10
-539.5864869499767
 20
-2.908144618025261
 10
-485.2421869499769
 20
-57.25244461802518
 10
-480.3648869499769
 20
-59.3430446180254
 10
-475.4875869499769
 20
-57.25244461802518
 10
-473.3975669499769
 20
-52.37583461802544
 10
-475.4875869499769
 20
-47.49854461802542
 10
-520.0779869499768
 20
-2.908144618025261
 10
-454.5864869499767
 20
-2.908144618025261
 10
-447.9674969499766
 20
-0.9923446180253848
 10
-443.4383869499767
 20
4.058455381974824
 10
-441.8709669499768
 20
10.67766538197461
 10
-443.4383869499767
 20
17.29635538197456
 10
-477.5782869499769
 20
73.73135538197474
 10
-412.0860869499769
 20
46.55885538197467
 10
-409.2994869499769
 20
45.86385538197462
 10
-405.6415769499769
 20
46.90890538197479
 10
-403.0287869499768
 20
50.04375538197465
 10
-402.9417269499767
 20
55.35645538197471
 10
-406.5127869499768
 20
59.10165538197461
 10
-490.8154869499769
 20
93.93735538197475
 10
-513.8072869499767
 20
131.5605553819746
 10
-425.3239869499769
 20
114.1427553819746
 10
-423.9304869499769
 20
114.1427553819746
 10
-419.4015669499767
 20
115.6230953819748
 10
-416.9631869499768
 20
119.7157553819746
 10
-417.9218369499769
 20
124.5930653819748
 10
-422.5371869499768
 20
127.3797553819746
 10
-522.8651869499768
 20
147.5849553819747
 10
-526.3483869499769
 20
153.1590553819747
 10
-510.3239869499769
 20
168.4869553819748
 10
-508.2339869499769
 20
170.5769553819748
 10
-385.6106869499766
 20
170.5769553819748
 10
-380.8205869499768
 20
172.4928053819748
 10
-378.6434869499767
 20
177.5442553819748
 10
-380.9076969499769
 20
182.5955253819747
 10
-386.3075869499768
 20
184.5113553819748
 10
-386.3079869499769
 20
184.5113553819748
 10
-508.9308869499767
 20
184.5113553819748
 10
-510.3244869499768
 20
186.6013553819748
 10
-531.2262869499768
 20
206.8065553819746
 10
-422.5375869499767
 20
228.4051553819747
 10
-418.1829169499767
 20
231.1912453819748
 10
-416.9636869499767
 20
236.0691553819747
 10
-419.7500469499768
 20
240.4232153819747
 10
-424.6274869499766
 20
241.6423553819748
 10
-543.7666869499767
 20
217.9538553819746
 10
-561.8820869499768
 20
231.8884553819747
 10
-407.2097869499767
 20
295.9866553819746
 10
-403.6387169499768
 20
299.7315953819747
 10
-403.7256869499766
 20
305.0439553819747
 10
-407.4706969499767
 20
308.6148953819746
 10
-412.7829869499767
 20
308.5278553819746
 10
-575.8158869499769
 20
240.2490553819747
 10
-581.3898869499767
 20
243.7329553819746
 10
-586.2671869499768
 20
252.0936553819747
 10
-463.6438869499768
 20
334.3064553819748
 10
-460.7700269499768
 20
338.5740353819746
 10
-461.5539869499768
 20
343.3637553819746
 10
-465.8210769499767
 20
346.2380053819747
 10
-470.6112869499769
 20
345.4543553819748
 10
-593.2343869499769
 20
263.9376553819745
 10
-600.8984869499768
 20
277.1754553819745
 10
-475.4879869499767
 20
402.5853553819748
 10
-473.3978869499769
 20
407.4622653819746
 10
-475.4879869499767
 20
412.3392553819748
 10
-480.3651769499767
 20
414.4297353819748
 10
-485.2425869499767
 20
412.3392553819748
 10
-608.5624869499768
 20
289.0192553819746
 10
-617.6194869499768
 20
304.3473553819747
 10
-542.3734869499767
 20
417.2166553819745
 10
-541.3284669499768
 20
422.0064353819747
 10
-544.4634869499769
 20
426.2737553819749
 10
-549.2537869499768
 20
427.3189053819748
 10
-553.5214869499769
 20
424.1838553819748
 10
-625.2835869499768
 20
316.8885553819747
 10
-637.1275869499768
 20
336.3970553819747
 10
-579.9965869499767
 20
475.0440553819748
 10
-579.9093969499768
 20
480.3568453819746
 10
-583.4798869499768
 20
484.1020553819748
 10
-588.7925169499767
 20
484.1891553819748
 10
-592.5377869499769
 20
480.6180553819747
 10
-646.1854869499768
 20
351.7250553819748
 10
-663.6030869499768
 20
380.2901553819747
 10
-646.8818869499768
 20
463.8968553819747
 10
-647.8405269499768
 20
468.7738553819746
 10
-652.4551869499769
 20
471.5607553819747
 10
-657.3324569499767
 20
470.6021053819746
 10
-660.1191869499767
 20
465.9867553819747
 10
-674.0537869499767
 20
397.0113553819748
 10
-699.8320869499769
 20
438.8150553819746
 10
-704.0127869499768
 20
442.9948553819746
 10
-704.0127869499768
 20
501.5198553819748
 10
-705.9286869499767
 20
506.3097953819748
 10
-710.9801869499768
 20
508.4872553819746
 10
-716.0312969499768
 20
506.5710153819747
 10
-717.9474869499768
 20
501.5198553819748
 10
-717.9474869499768
 20
442.2982553819746
 10
-722.1273869499769
 20
438.1184553819746
 10
-747.2098869499769
 20
396.3145553819747
 10
-761.1437869499769
 20
465.2901553819747
 10
-763.9301769499768
 20
469.6449153819747
 10
-768.8077869499768
 20
470.8641553819747
 10
-773.1624769499768
 20
468.0777453819748
 10
-774.3817869499769
 20
463.2002553819747
 10
-757.6604869499768
 20
379.5933553819747
 10
-775.0783869499769
 20
351.0275553819746
 10
-828.0294169499768
 20
479.9213553819748
 10
-831.7742469499768
 20
483.4923953819747
 10
-837.0865969499768
 20
483.4054553819748
 10
-840.6575869499768
 20
479.6603053819747
 10
-840.5706469499768
 20
474.3473553819747
 10
-783.4390869499769
 20
335.6997553819748
 10
-795.2835869499768
 20
316.8885553819747
 10
-867.0457069499769
 20
424.1838553819748
 10
-871.3131169499768
 20
427.0575353819747
 10
-876.1030369499769
 20
426.2737553819749
 10
-878.9773069499768
 20
422.0064253819747
 10
-878.1936769499767
 20
417.2166553819745
 10
-802.9474369499767
 20
304.3473553819747
 10
-812.0047269499769
 20
289.0192553819746
 10
-934.6278869499769
 20
411.6426553819748
 10
-939.5048869499768
 20
413.7330553819747
 10
-944.3817669499767
 20
411.6426553819748
 10
-946.4723169499769
 20
406.7656053819748
 10
-944.3817669499767
 20
401.8885553819747
 10
-818.9721169499768
 20
276.4788553819745
 10
-826.6359869499769
 20
263.2410553819745
 10
-949.2591369499768
 20
345.4543553819748
 10
-954.0490669499768
 20
346.4993053819746
 10
-958.3164269499769
 20
343.3637553819746
 10
-959.3614269499768
 20
338.5740353819746
 10
-956.2264669499768
 20
334.3064553819748
 10
-833.6033769499768
 20
252.0936553819747
 10
-838.4797969499767
 20
243.7329553819746
 10
-844.0538669499769
 20
240.2490553819747
 10
-1007.086696949977
 20
307.8312553819746
 10
-1012.399326949977
 20
307.9183253819748
 10
-1016.143986949977
 20
304.3473553819747
 10
-1016.231336949977
 20
299.0349153819745
 10
-1012.660666949977
 20
295.2900553819746
 10
-857.9884069499768
 20
231.1918553819747
 10
-876.1030369499769
 20
217.2572553819747
 10
-995.2428569499768
 20
240.9457553819748
 10
-1000.119906949977
 20
239.9870853819748
 10
-1002.906776949977
 20
235.3718553819748
 10
-1001.947666949977
 20
230.4950553819747
 10
-997.3328069499769
 20
227.7077553819747
 10
-888.6441569499767
 20
206.1100553819746
 10
-909.5461469499769
 20
185.9047553819748
 10
-911.6361069499768
 20
184.5112553819747
 10
-1034.259246949977
 20
184.5112553819747
 10
-1039.049156949977
 20
182.5951553819748
 10
-1041.226576949977
 20
177.5440553819747
 10
-1039.310376949977
 20
172.4925953819748
 10
-1034.259246949977
 20
170.5766553819747
 10
-911.6361069499768
 20
170.5766553819747
 10
-909.5461469499769
 20
168.4867553819747
 10
-893.5217069499768
 20
153.1589553819747
 10
-897.0050269499768
 20
147.5848553819746
 10
-998.0295869499769
 20
127.3795553819748
 10
-1002.384356949977
 20
124.5935153819748
 10
-1003.603536949977
 20
119.7156553819748
 10
-1001.165746949977
 20
115.6229453819746
 10
-996.6363869499769
 20
114.1425553819748
 10
-995.2430269499769
 20
114.1425553819748
 10
-907.4555069499768
 20
131.5604553819746
 10
-929.7506869499769
 20
93.93715538197469
 10
-1012.660836949977
 20
59.79815538197457
 10
-1016.231506949977
 20
56.05317538197468
 10
-1016.144156949977
 20
50.7408553819748
 10
-1013.531666949977
 20
47.60535538197459
 10
-1009.874276949977
 20
46.56025538197483
 10
-1007.086866949977
 20
47.25525538197459
 10
-941.5953769499768
 20
74.42785538197469
 10
-975.7343969499768
 20
17.99275538197477
 10
-977.5631569499768
 20
11.37411538197469
 10
-975.7343969499768
 20
4.755555381974688
 10
-970.9445169499769
 20
-0.2957246180251616
 10
-964.5871569499768
 20
-2.211544618025272
 10
-899.0949869499768
 20
-2.211544618025272
 10
-943.6853369499768
 20
-46.80214461802521
  0
LWPOLYLINE
  5
57
100
AcDbEntity
  8
0
  6
ByLayer
 62
  256
370
   -1
100
AcDbPolyline
 90
   33
 70
    1
 43
0
 10
-785.4311269499769
 20
145.7017453819746
 10
-790.1543269499768
 20
161.0392253819747
 10
-791.7994869499768
 20
177.5442553819748
 10
-790.1257569499768
 20
194.0492253819748
 10
-785.3331669499768
 20
209.3866653819747
 10
-777.7646069499767
 20
223.2381453819748
 10
-767.7629569499768
 20
235.2852453819746
 10
-755.6711369499769
 20
245.2095153819748
 10
-741.8320169499768
 20
252.6925253819747
 10
-726.5885069499768
 20
257.4158553819747
 10
-710.2834869499768
 20
259.0610553819748
 10
-693.9784869499767
 20
257.3872753819746
 10
-678.7348969499769
 20
252.5945653819748
 10
-664.8956369499768
 20
245.0258353819747
 10
-652.8036369499767
 20
235.0240153819748
 10
-642.8018069499768
 20
222.9320253819746
 10
-635.2330769499767
 20
209.0927853819748
 10
-630.4403669499768
 20
193.8492253819747
 10
-628.766586949977
 20
177.5442553819748
 10
-628.766586949977
 20
177.5442553819748
 10
-630.4117869499769
 20
161.2392253819748
 10
-635.1351169499767
 20
145.9956253819747
 10
-642.6181369499768
 20
132.1563653819747
 10
-652.5424069499768
 20
120.0643653819746
 10
-664.5895169499768
 20
110.0625553819746
 10
-678.4410169499768
 20
102.4938353819748
 10
-693.7784869499768
 20
97.70112538197466
 10
-710.2834869499768
 20
96.02735538197479
 10
-726.7885069499767
 20
97.6725553819746
 10
-742.1258969499768
 20
102.3958753819748
 10
-755.9772569499768
 20
109.8788753819748
 10
-768.0241869499769
 20
119.8031453819748
 10
-777.9482769499768
 20
131.8502453819748
  0
LWPOLYLINE
  5
58
100
AcDbEntity
  8
0
  6
ByLayer
 62
  256
370
   -1
100
AcDbPolyline
 90
   17
 70
    1
 43
0
 10
-941.5953769499768
 20
24.26525538197481
 10
-874.0132569499768
 20
135.7411553819746
 10
-843.0416069499768
 20
113.3479253819748
 10
-824.5961469499769
 20
102.2452153819746
 10
-804.4279569499768
 20
91.93448538197472
 10
-782.7248269499768
 20
82.96277538197458
 10
-759.6745169499768
 20
75.87712538197465
 10
-735.4648169499768
 20
71.22456538197483
 10
-710.2834869499768
 20
69.55215538197464
 10
-685.1021969499768
 20
71.19599538197477
 10
-660.8924769499768
 20
75.77914538197476
 10
-637.8421269499768
 20
82.77907538197482
 10
-616.1389469499768
 20
91.6732153819747
 10
-595.970746949977
 20
101.9390453819746
 10
-577.5253169499769
 20
113.0540053819747
 10
-546.5539869499769
 20
135.7411553819746
 10
-478.9719869499767
 20
24.26525538197481
  0
LWPOLYLINE
  5
59
100
AcDbEntity
  8
0
  6
ByLayer
 62
  256
370
   -1
100
AcDbPolyline
 90
   10
 70
    1
 43
0
 10
-625.9800869499768
 20
266.7241553819748
 10
-645.8148869499769
 20
273.9638153819748
 10
-666.5641369499767
 20
279.7010453819747
 10
-688.0972169499768
 20
283.4786553819747
 10
-710.2834869499768
 20
284.8394553819746
 10
-732.7636269499769
 20
283.4786553819747
 10
-754.2639569499768
 20
279.7010453819747
 10
-774.8499369499768
 20
273.9638153819748
 10
-794.5869869499768
 20
266.7241553819748
 10
-710.2834869499768
 20
406.0692553819747
  0
LWPOLYLINE
  5
5A
100
AcDbEntity
  8
0
  6
ByLayer
 62
  256
370
   -1
100
AcDbPolyline
 90
   15
 70
    1
 43
0
 10
-850.0630469499768
 20
204.3680653819747
 10
-827.1037569499767
 20
220.2618953819747
 10
-800.1602169499768
 20
235.3718553819748
 10
-807.5848769499769
 20
222.2213553819746
 10
-813.0499169499768
 20
208.0257753819747
 10
-816.4247269499767
 20
193.0463453819748
 10
-817.5786869499768
 20
177.5442553819748
 10
-816.4247269499767
 20
161.7481853819747
 10
-813.0499169499768
 20
146.8013153819747
 10
-807.5848769499769
 20
132.7687953819746
 10
-800.1602169499768
 20
119.7157553819746
 10
-827.1037569499767
 20
134.8262453819747
 10
-850.0630469499768
 20
150.7202953819747
 10
-881.6771769499768
 20
177.5442553819748
 10
-881.6771769499768
 20
177.5442553819748
  0
LWPOLYLINE
  5
5B
100
AcDbEntity
  8
0
  6
ByLayer
 62
  256
370
   -1
100
AcDbPolyline
 90
   17
 70
    1
 43
0
 10
-612.9818769499768
 20
132.8667553819746
 10
-607.5169769499769
 20
147.0625453819746
 10
-604.1422369499769
 20
162.0420653819748
 10
-602.9882869499768
 20
177.5442553819748
 10
-604.1422369499769
 20
193.3402253819746
 10
-607.5169769499769
 20
208.2870053819748
 10
-612.9818769499768
 20
222.3193153819746
 10
-620.4062869499768
 20
235.3718553819748
 10
-593.7673869499768
 20
220.2618953819747
 10
-570.8517269499769
 20
204.3680653819747
 10
-552.5084169499767
 20
189.5192353819748
 10
-539.5865869499769
 20
177.5442553819748
 10
-552.4103769499768
 20
165.5691953819748
 10
-570.5904269499769
 20
150.7202953819747
 10
-593.4734869499769
 20
134.8262453819747
 10
-620.4062869499768
 20
119.7157553819746
 10
-620.4062869499768
 20
119.7157553819746
  0
ENDSEC
  0
SECTION
  2
OBJECTS
  0
DICTIONARY
  5
C
330
0
100
AcDbDictionary
281
    1
  3
ACAD_GROUP
350
D
  0
DICTIONARY
  5
D
330
C
100
AcDbDictionary
281
    1
  0
ENDSEC
  0
EOF
