%TF.GenerationSoftware,KiCad,Pcbnew,6.0.11-2627ca5db0~126~ubuntu20.04.1*%
%TF.CreationDate,2024-02-12T23:33:47+01:00*%
%TF.ProjectId,PCB,5043422e-6b69-4636-9164-5f7063625858,rev?*%
%TF.SameCoordinates,Original*%
%TF.FileFunction,Legend,Top*%
%TF.FilePolarity,Positive*%
%FSLAX46Y46*%
G04 Gerber Fmt 4.6, Leading zero omitted, Abs format (unit mm)*
G04 Created by KiCad (PCBNEW 6.0.11-2627ca5db0~126~ubuntu20.04.1) date 2024-02-12 23:33:47*
%MOMM*%
%LPD*%
G01*
G04 APERTURE LIST*
%ADD10C,0.150000*%
%ADD11C,0.120000*%
%ADD12C,0.127000*%
G04 APERTURE END LIST*
D10*
X99507023Y-118642142D02*
X99459404Y-118689761D01*
X99316547Y-118737380D01*
X99221309Y-118737380D01*
X99078452Y-118689761D01*
X98983214Y-118594523D01*
X98935595Y-118499285D01*
X98887976Y-118308809D01*
X98887976Y-118165952D01*
X98935595Y-117975476D01*
X98983214Y-117880238D01*
X99078452Y-117785000D01*
X99221309Y-117737380D01*
X99316547Y-117737380D01*
X99459404Y-117785000D01*
X99507023Y-117832619D01*
X99935595Y-118737380D02*
X99935595Y-117737380D01*
X100364166Y-118737380D02*
X100364166Y-118213571D01*
X100316547Y-118118333D01*
X100221309Y-118070714D01*
X100078452Y-118070714D01*
X99983214Y-118118333D01*
X99935595Y-118165952D01*
X100840357Y-118737380D02*
X100840357Y-118070714D01*
X100840357Y-117737380D02*
X100792738Y-117785000D01*
X100840357Y-117832619D01*
X100887976Y-117785000D01*
X100840357Y-117737380D01*
X100840357Y-117832619D01*
X102078452Y-118737380D02*
X102078452Y-117737380D01*
X102507023Y-118737380D02*
X102507023Y-118213571D01*
X102459404Y-118118333D01*
X102364166Y-118070714D01*
X102221309Y-118070714D01*
X102126071Y-118118333D01*
X102078452Y-118165952D01*
X103411785Y-118737380D02*
X103411785Y-118213571D01*
X103364166Y-118118333D01*
X103268928Y-118070714D01*
X103078452Y-118070714D01*
X102983214Y-118118333D01*
X103411785Y-118689761D02*
X103316547Y-118737380D01*
X103078452Y-118737380D01*
X102983214Y-118689761D01*
X102935595Y-118594523D01*
X102935595Y-118499285D01*
X102983214Y-118404047D01*
X103078452Y-118356428D01*
X103316547Y-118356428D01*
X103411785Y-118308809D01*
X98935595Y-119347380D02*
X98935595Y-120156904D01*
X98983214Y-120252142D01*
X99030833Y-120299761D01*
X99126071Y-120347380D01*
X99316547Y-120347380D01*
X99411785Y-120299761D01*
X99459404Y-120252142D01*
X99507023Y-120156904D01*
X99507023Y-119347380D01*
X100411785Y-120299761D02*
X100316547Y-120347380D01*
X100126071Y-120347380D01*
X100030833Y-120299761D01*
X99983214Y-120252142D01*
X99935595Y-120156904D01*
X99935595Y-119871190D01*
X99983214Y-119775952D01*
X100030833Y-119728333D01*
X100126071Y-119680714D01*
X100316547Y-119680714D01*
X100411785Y-119728333D01*
X101268928Y-120299761D02*
X101173690Y-120347380D01*
X100983214Y-120347380D01*
X100887976Y-120299761D01*
X100840357Y-120252142D01*
X100792738Y-120156904D01*
X100792738Y-119871190D01*
X100840357Y-119775952D01*
X100887976Y-119728333D01*
X100983214Y-119680714D01*
X101173690Y-119680714D01*
X101268928Y-119728333D01*
X101697500Y-120347380D02*
X101697500Y-119680714D01*
X101697500Y-119347380D02*
X101649880Y-119395000D01*
X101697500Y-119442619D01*
X101745119Y-119395000D01*
X101697500Y-119347380D01*
X101697500Y-119442619D01*
X102126071Y-120299761D02*
X102221309Y-120347380D01*
X102411785Y-120347380D01*
X102507023Y-120299761D01*
X102554642Y-120204523D01*
X102554642Y-120156904D01*
X102507023Y-120061666D01*
X102411785Y-120014047D01*
X102268928Y-120014047D01*
X102173690Y-119966428D01*
X102126071Y-119871190D01*
X102126071Y-119823571D01*
X102173690Y-119728333D01*
X102268928Y-119680714D01*
X102411785Y-119680714D01*
X102507023Y-119728333D01*
X103126071Y-120347380D02*
X103030833Y-120299761D01*
X102983214Y-120252142D01*
X102935595Y-120156904D01*
X102935595Y-119871190D01*
X102983214Y-119775952D01*
X103030833Y-119728333D01*
X103126071Y-119680714D01*
X103268928Y-119680714D01*
X103364166Y-119728333D01*
X103411785Y-119775952D01*
X103459404Y-119871190D01*
X103459404Y-120156904D01*
X103411785Y-120252142D01*
X103364166Y-120299761D01*
X103268928Y-120347380D01*
X103126071Y-120347380D01*
X98935595Y-121957380D02*
X98935595Y-120957380D01*
X99554642Y-121957380D02*
X99459404Y-121909761D01*
X99411785Y-121814523D01*
X99411785Y-120957380D01*
X101268928Y-121862142D02*
X101221309Y-121909761D01*
X101078452Y-121957380D01*
X100983214Y-121957380D01*
X100840357Y-121909761D01*
X100745119Y-121814523D01*
X100697500Y-121719285D01*
X100649880Y-121528809D01*
X100649880Y-121385952D01*
X100697500Y-121195476D01*
X100745119Y-121100238D01*
X100840357Y-121005000D01*
X100983214Y-120957380D01*
X101078452Y-120957380D01*
X101221309Y-121005000D01*
X101268928Y-121052619D01*
X101840357Y-121957380D02*
X101745119Y-121909761D01*
X101697500Y-121862142D01*
X101649880Y-121766904D01*
X101649880Y-121481190D01*
X101697500Y-121385952D01*
X101745119Y-121338333D01*
X101840357Y-121290714D01*
X101983214Y-121290714D01*
X102078452Y-121338333D01*
X102126071Y-121385952D01*
X102173690Y-121481190D01*
X102173690Y-121766904D01*
X102126071Y-121862142D01*
X102078452Y-121909761D01*
X101983214Y-121957380D01*
X101840357Y-121957380D01*
X102602261Y-121290714D02*
X102602261Y-121957380D01*
X102602261Y-121385952D02*
X102649880Y-121338333D01*
X102745119Y-121290714D01*
X102887976Y-121290714D01*
X102983214Y-121338333D01*
X103030833Y-121433571D01*
X103030833Y-121957380D01*
X103364166Y-121290714D02*
X103745119Y-121290714D01*
X103507023Y-120957380D02*
X103507023Y-121814523D01*
X103554642Y-121909761D01*
X103649880Y-121957380D01*
X103745119Y-121957380D01*
X104459404Y-121909761D02*
X104364166Y-121957380D01*
X104173690Y-121957380D01*
X104078452Y-121909761D01*
X104030833Y-121814523D01*
X104030833Y-121433571D01*
X104078452Y-121338333D01*
X104173690Y-121290714D01*
X104364166Y-121290714D01*
X104459404Y-121338333D01*
X104507023Y-121433571D01*
X104507023Y-121528809D01*
X104030833Y-121624047D01*
X105078452Y-121862142D02*
X105126071Y-121909761D01*
X105078452Y-121957380D01*
X105030833Y-121909761D01*
X105078452Y-121862142D01*
X105078452Y-121957380D01*
X104887976Y-121005000D02*
X104983214Y-120957380D01*
X105221309Y-120957380D01*
X105316547Y-121005000D01*
X105364166Y-121100238D01*
X105364166Y-121195476D01*
X105316547Y-121290714D01*
X105268928Y-121338333D01*
X105173690Y-121385952D01*
X105126071Y-121433571D01*
X105078452Y-121528809D01*
X105078452Y-121576428D01*
X98887976Y-122662619D02*
X98935595Y-122615000D01*
X99030833Y-122567380D01*
X99268928Y-122567380D01*
X99364166Y-122615000D01*
X99411785Y-122662619D01*
X99459404Y-122757857D01*
X99459404Y-122853095D01*
X99411785Y-122995952D01*
X98840357Y-123567380D01*
X99459404Y-123567380D01*
X100078452Y-122567380D02*
X100173690Y-122567380D01*
X100268928Y-122615000D01*
X100316547Y-122662619D01*
X100364166Y-122757857D01*
X100411785Y-122948333D01*
X100411785Y-123186428D01*
X100364166Y-123376904D01*
X100316547Y-123472142D01*
X100268928Y-123519761D01*
X100173690Y-123567380D01*
X100078452Y-123567380D01*
X99983214Y-123519761D01*
X99935595Y-123472142D01*
X99887976Y-123376904D01*
X99840357Y-123186428D01*
X99840357Y-122948333D01*
X99887976Y-122757857D01*
X99935595Y-122662619D01*
X99983214Y-122615000D01*
X100078452Y-122567380D01*
X100792738Y-122662619D02*
X100840357Y-122615000D01*
X100935595Y-122567380D01*
X101173690Y-122567380D01*
X101268928Y-122615000D01*
X101316547Y-122662619D01*
X101364166Y-122757857D01*
X101364166Y-122853095D01*
X101316547Y-122995952D01*
X100745119Y-123567380D01*
X101364166Y-123567380D01*
X102221309Y-122900714D02*
X102221309Y-123567380D01*
X101983214Y-122519761D02*
X101745119Y-123234047D01*
X102364166Y-123234047D01*
%TO.C,R2.2*%
X55022380Y-122160952D02*
X54546190Y-122494285D01*
X55022380Y-122732380D02*
X54022380Y-122732380D01*
X54022380Y-122351428D01*
X54070000Y-122256190D01*
X54117619Y-122208571D01*
X54212857Y-122160952D01*
X54355714Y-122160952D01*
X54450952Y-122208571D01*
X54498571Y-122256190D01*
X54546190Y-122351428D01*
X54546190Y-122732380D01*
X54117619Y-121780000D02*
X54070000Y-121732380D01*
X54022380Y-121637142D01*
X54022380Y-121399047D01*
X54070000Y-121303809D01*
X54117619Y-121256190D01*
X54212857Y-121208571D01*
X54308095Y-121208571D01*
X54450952Y-121256190D01*
X55022380Y-121827619D01*
X55022380Y-121208571D01*
X54927142Y-120780000D02*
X54974761Y-120732380D01*
X55022380Y-120780000D01*
X54974761Y-120827619D01*
X54927142Y-120780000D01*
X55022380Y-120780000D01*
X54117619Y-120351428D02*
X54070000Y-120303809D01*
X54022380Y-120208571D01*
X54022380Y-119970476D01*
X54070000Y-119875238D01*
X54117619Y-119827619D01*
X54212857Y-119780000D01*
X54308095Y-119780000D01*
X54450952Y-119827619D01*
X55022380Y-120399047D01*
X55022380Y-119780000D01*
%TO.C,Jump*%
X70971428Y-100452380D02*
X70971428Y-101166666D01*
X70923809Y-101309523D01*
X70828571Y-101404761D01*
X70685714Y-101452380D01*
X70590476Y-101452380D01*
X71876190Y-100785714D02*
X71876190Y-101452380D01*
X71447619Y-100785714D02*
X71447619Y-101309523D01*
X71495238Y-101404761D01*
X71590476Y-101452380D01*
X71733333Y-101452380D01*
X71828571Y-101404761D01*
X71876190Y-101357142D01*
X72352380Y-101452380D02*
X72352380Y-100785714D01*
X72352380Y-100880952D02*
X72400000Y-100833333D01*
X72495238Y-100785714D01*
X72638095Y-100785714D01*
X72733333Y-100833333D01*
X72780952Y-100928571D01*
X72780952Y-101452380D01*
X72780952Y-100928571D02*
X72828571Y-100833333D01*
X72923809Y-100785714D01*
X73066666Y-100785714D01*
X73161904Y-100833333D01*
X73209523Y-100928571D01*
X73209523Y-101452380D01*
X73685714Y-100785714D02*
X73685714Y-101785714D01*
X73685714Y-100833333D02*
X73780952Y-100785714D01*
X73971428Y-100785714D01*
X74066666Y-100833333D01*
X74114285Y-100880952D01*
X74161904Y-100976190D01*
X74161904Y-101261904D01*
X74114285Y-101357142D01*
X74066666Y-101404761D01*
X73971428Y-101452380D01*
X73780952Y-101452380D01*
X73685714Y-101404761D01*
X69671428Y-104452380D02*
X69671428Y-105166666D01*
X69623809Y-105309523D01*
X69528571Y-105404761D01*
X69385714Y-105452380D01*
X69290476Y-105452380D01*
X70576190Y-104785714D02*
X70576190Y-105452380D01*
X70147619Y-104785714D02*
X70147619Y-105309523D01*
X70195238Y-105404761D01*
X70290476Y-105452380D01*
X70433333Y-105452380D01*
X70528571Y-105404761D01*
X70576190Y-105357142D01*
X71052380Y-105452380D02*
X71052380Y-104785714D01*
X71052380Y-104880952D02*
X71100000Y-104833333D01*
X71195238Y-104785714D01*
X71338095Y-104785714D01*
X71433333Y-104833333D01*
X71480952Y-104928571D01*
X71480952Y-105452380D01*
X71480952Y-104928571D02*
X71528571Y-104833333D01*
X71623809Y-104785714D01*
X71766666Y-104785714D01*
X71861904Y-104833333D01*
X71909523Y-104928571D01*
X71909523Y-105452380D01*
X72385714Y-104785714D02*
X72385714Y-105785714D01*
X72385714Y-104833333D02*
X72480952Y-104785714D01*
X72671428Y-104785714D01*
X72766666Y-104833333D01*
X72814285Y-104880952D01*
X72861904Y-104976190D01*
X72861904Y-105261904D01*
X72814285Y-105357142D01*
X72766666Y-105404761D01*
X72671428Y-105452380D01*
X72480952Y-105452380D01*
X72385714Y-105404761D01*
%TO.C,D2*%
X52391904Y-98492380D02*
X52391904Y-97492380D01*
X52630000Y-97492380D01*
X52772857Y-97540000D01*
X52868095Y-97635238D01*
X52915714Y-97730476D01*
X52963333Y-97920952D01*
X52963333Y-98063809D01*
X52915714Y-98254285D01*
X52868095Y-98349523D01*
X52772857Y-98444761D01*
X52630000Y-98492380D01*
X52391904Y-98492380D01*
X53344285Y-97587619D02*
X53391904Y-97540000D01*
X53487142Y-97492380D01*
X53725238Y-97492380D01*
X53820476Y-97540000D01*
X53868095Y-97587619D01*
X53915714Y-97682857D01*
X53915714Y-97778095D01*
X53868095Y-97920952D01*
X53296666Y-98492380D01*
X53915714Y-98492380D01*
%TO.C,pot2*%
X65571428Y-79085714D02*
X65571428Y-80085714D01*
X65571428Y-79133333D02*
X65666666Y-79085714D01*
X65857142Y-79085714D01*
X65952380Y-79133333D01*
X66000000Y-79180952D01*
X66047619Y-79276190D01*
X66047619Y-79561904D01*
X66000000Y-79657142D01*
X65952380Y-79704761D01*
X65857142Y-79752380D01*
X65666666Y-79752380D01*
X65571428Y-79704761D01*
X66619047Y-79752380D02*
X66523809Y-79704761D01*
X66476190Y-79657142D01*
X66428571Y-79561904D01*
X66428571Y-79276190D01*
X66476190Y-79180952D01*
X66523809Y-79133333D01*
X66619047Y-79085714D01*
X66761904Y-79085714D01*
X66857142Y-79133333D01*
X66904761Y-79180952D01*
X66952380Y-79276190D01*
X66952380Y-79561904D01*
X66904761Y-79657142D01*
X66857142Y-79704761D01*
X66761904Y-79752380D01*
X66619047Y-79752380D01*
X67238095Y-79085714D02*
X67619047Y-79085714D01*
X67380952Y-78752380D02*
X67380952Y-79609523D01*
X67428571Y-79704761D01*
X67523809Y-79752380D01*
X67619047Y-79752380D01*
X67904761Y-78847619D02*
X67952380Y-78800000D01*
X68047619Y-78752380D01*
X68285714Y-78752380D01*
X68380952Y-78800000D01*
X68428571Y-78847619D01*
X68476190Y-78942857D01*
X68476190Y-79038095D01*
X68428571Y-79180952D01*
X67857142Y-79752380D01*
X68476190Y-79752380D01*
%TO.C,SW3*%
X94204761Y-130833333D02*
X94252380Y-130690476D01*
X94252380Y-130452380D01*
X94204761Y-130357142D01*
X94157142Y-130309523D01*
X94061904Y-130261904D01*
X93966666Y-130261904D01*
X93871428Y-130309523D01*
X93823809Y-130357142D01*
X93776190Y-130452380D01*
X93728571Y-130642857D01*
X93680952Y-130738095D01*
X93633333Y-130785714D01*
X93538095Y-130833333D01*
X93442857Y-130833333D01*
X93347619Y-130785714D01*
X93300000Y-130738095D01*
X93252380Y-130642857D01*
X93252380Y-130404761D01*
X93300000Y-130261904D01*
X93252380Y-129928571D02*
X94252380Y-129690476D01*
X93538095Y-129500000D01*
X94252380Y-129309523D01*
X93252380Y-129071428D01*
X93252380Y-128785714D02*
X93252380Y-128166666D01*
X93633333Y-128500000D01*
X93633333Y-128357142D01*
X93680952Y-128261904D01*
X93728571Y-128214285D01*
X93823809Y-128166666D01*
X94061904Y-128166666D01*
X94157142Y-128214285D01*
X94204761Y-128261904D01*
X94252380Y-128357142D01*
X94252380Y-128642857D01*
X94204761Y-128738095D01*
X94157142Y-128785714D01*
%TO.C,-*%
X41019047Y-123671428D02*
X41780952Y-123671428D01*
%TO.C,pot3*%
X79871428Y-78785714D02*
X79871428Y-79785714D01*
X79871428Y-78833333D02*
X79966666Y-78785714D01*
X80157142Y-78785714D01*
X80252380Y-78833333D01*
X80300000Y-78880952D01*
X80347619Y-78976190D01*
X80347619Y-79261904D01*
X80300000Y-79357142D01*
X80252380Y-79404761D01*
X80157142Y-79452380D01*
X79966666Y-79452380D01*
X79871428Y-79404761D01*
X80919047Y-79452380D02*
X80823809Y-79404761D01*
X80776190Y-79357142D01*
X80728571Y-79261904D01*
X80728571Y-78976190D01*
X80776190Y-78880952D01*
X80823809Y-78833333D01*
X80919047Y-78785714D01*
X81061904Y-78785714D01*
X81157142Y-78833333D01*
X81204761Y-78880952D01*
X81252380Y-78976190D01*
X81252380Y-79261904D01*
X81204761Y-79357142D01*
X81157142Y-79404761D01*
X81061904Y-79452380D01*
X80919047Y-79452380D01*
X81538095Y-78785714D02*
X81919047Y-78785714D01*
X81680952Y-78452380D02*
X81680952Y-79309523D01*
X81728571Y-79404761D01*
X81823809Y-79452380D01*
X81919047Y-79452380D01*
X82157142Y-78452380D02*
X82776190Y-78452380D01*
X82442857Y-78833333D01*
X82585714Y-78833333D01*
X82680952Y-78880952D01*
X82728571Y-78928571D01*
X82776190Y-79023809D01*
X82776190Y-79261904D01*
X82728571Y-79357142D01*
X82680952Y-79404761D01*
X82585714Y-79452380D01*
X82300000Y-79452380D01*
X82204761Y-79404761D01*
X82157142Y-79357142D01*
%TO.C,pot 1*%
X73190476Y-72085714D02*
X73190476Y-73085714D01*
X73190476Y-72133333D02*
X73285714Y-72085714D01*
X73476190Y-72085714D01*
X73571428Y-72133333D01*
X73619047Y-72180952D01*
X73666666Y-72276190D01*
X73666666Y-72561904D01*
X73619047Y-72657142D01*
X73571428Y-72704761D01*
X73476190Y-72752380D01*
X73285714Y-72752380D01*
X73190476Y-72704761D01*
X74238095Y-72752380D02*
X74142857Y-72704761D01*
X74095238Y-72657142D01*
X74047619Y-72561904D01*
X74047619Y-72276190D01*
X74095238Y-72180952D01*
X74142857Y-72133333D01*
X74238095Y-72085714D01*
X74380952Y-72085714D01*
X74476190Y-72133333D01*
X74523809Y-72180952D01*
X74571428Y-72276190D01*
X74571428Y-72561904D01*
X74523809Y-72657142D01*
X74476190Y-72704761D01*
X74380952Y-72752380D01*
X74238095Y-72752380D01*
X74857142Y-72085714D02*
X75238095Y-72085714D01*
X75000000Y-71752380D02*
X75000000Y-72609523D01*
X75047619Y-72704761D01*
X75142857Y-72752380D01*
X75238095Y-72752380D01*
X76857142Y-72752380D02*
X76285714Y-72752380D01*
X76571428Y-72752380D02*
X76571428Y-71752380D01*
X76476190Y-71895238D01*
X76380952Y-71990476D01*
X76285714Y-72038095D01*
%TO.C,U2*%
X98290074Y-105218803D02*
X98290074Y-105856224D01*
X98327570Y-105931215D01*
X98365065Y-105968710D01*
X98440056Y-106006205D01*
X98590037Y-106006205D01*
X98665028Y-105968710D01*
X98702523Y-105931215D01*
X98740018Y-105856224D01*
X98740018Y-105218803D01*
X99077476Y-105293794D02*
X99114972Y-105256299D01*
X99189962Y-105218803D01*
X99377439Y-105218803D01*
X99452430Y-105256299D01*
X99489925Y-105293794D01*
X99527420Y-105368785D01*
X99527420Y-105443775D01*
X99489925Y-105556261D01*
X99039981Y-106006205D01*
X99527420Y-106006205D01*
X94200000Y-101952380D02*
X94200000Y-100952380D01*
X94533333Y-100952380D02*
X95104761Y-100952380D01*
X94819047Y-101952380D02*
X94819047Y-100952380D01*
X95961904Y-101000000D02*
X95866666Y-100952380D01*
X95723809Y-100952380D01*
X95580952Y-101000000D01*
X95485714Y-101095238D01*
X95438095Y-101190476D01*
X95390476Y-101380952D01*
X95390476Y-101523809D01*
X95438095Y-101714285D01*
X95485714Y-101809523D01*
X95580952Y-101904761D01*
X95723809Y-101952380D01*
X95819047Y-101952380D01*
X95961904Y-101904761D01*
X96009523Y-101857142D01*
X96009523Y-101523809D01*
X95819047Y-101523809D01*
X97152380Y-100904761D02*
X96295238Y-102190476D01*
X97485714Y-101952380D02*
X97485714Y-100952380D01*
X97819047Y-101666666D01*
X98152380Y-100952380D01*
X98152380Y-101952380D01*
X98628571Y-101952380D02*
X98628571Y-100952380D01*
X99009523Y-100952380D01*
X99104761Y-101000000D01*
X99152380Y-101047619D01*
X99200000Y-101142857D01*
X99200000Y-101285714D01*
X99152380Y-101380952D01*
X99104761Y-101428571D01*
X99009523Y-101476190D01*
X98628571Y-101476190D01*
X99628571Y-100952380D02*
X99628571Y-101761904D01*
X99676190Y-101857142D01*
X99723809Y-101904761D01*
X99819047Y-101952380D01*
X100009523Y-101952380D01*
X100104761Y-101904761D01*
X100152380Y-101857142D01*
X100200000Y-101761904D01*
X100200000Y-100952380D01*
X97381904Y-110515714D02*
X97620000Y-111182380D01*
X97858095Y-110515714D02*
X97620000Y-111182380D01*
X97524761Y-111420476D01*
X97477142Y-111468095D01*
X97381904Y-111515714D01*
X100533095Y-114992380D02*
X101056904Y-114325714D01*
X100533095Y-114325714D02*
X101056904Y-114992380D01*
%TO.C,U1*%
X57648095Y-85972380D02*
X57648095Y-86781904D01*
X57695714Y-86877142D01*
X57743333Y-86924761D01*
X57838571Y-86972380D01*
X58029047Y-86972380D01*
X58124285Y-86924761D01*
X58171904Y-86877142D01*
X58219523Y-86781904D01*
X58219523Y-85972380D01*
X59219523Y-86972380D02*
X58648095Y-86972380D01*
X58933809Y-86972380D02*
X58933809Y-85972380D01*
X58838571Y-86115238D01*
X58743333Y-86210476D01*
X58648095Y-86258095D01*
%TO.C,D1*%
X49991904Y-114212380D02*
X49991904Y-113212380D01*
X50230000Y-113212380D01*
X50372857Y-113260000D01*
X50468095Y-113355238D01*
X50515714Y-113450476D01*
X50563333Y-113640952D01*
X50563333Y-113783809D01*
X50515714Y-113974285D01*
X50468095Y-114069523D01*
X50372857Y-114164761D01*
X50230000Y-114212380D01*
X49991904Y-114212380D01*
X51515714Y-114212380D02*
X50944285Y-114212380D01*
X51230000Y-114212380D02*
X51230000Y-113212380D01*
X51134761Y-113355238D01*
X51039523Y-113450476D01*
X50944285Y-113498095D01*
%TO.C,Jump*%
X63771428Y-103952380D02*
X63771428Y-104666666D01*
X63723809Y-104809523D01*
X63628571Y-104904761D01*
X63485714Y-104952380D01*
X63390476Y-104952380D01*
X64676190Y-104285714D02*
X64676190Y-104952380D01*
X64247619Y-104285714D02*
X64247619Y-104809523D01*
X64295238Y-104904761D01*
X64390476Y-104952380D01*
X64533333Y-104952380D01*
X64628571Y-104904761D01*
X64676190Y-104857142D01*
X65152380Y-104952380D02*
X65152380Y-104285714D01*
X65152380Y-104380952D02*
X65200000Y-104333333D01*
X65295238Y-104285714D01*
X65438095Y-104285714D01*
X65533333Y-104333333D01*
X65580952Y-104428571D01*
X65580952Y-104952380D01*
X65580952Y-104428571D02*
X65628571Y-104333333D01*
X65723809Y-104285714D01*
X65866666Y-104285714D01*
X65961904Y-104333333D01*
X66009523Y-104428571D01*
X66009523Y-104952380D01*
X66485714Y-104285714D02*
X66485714Y-105285714D01*
X66485714Y-104333333D02*
X66580952Y-104285714D01*
X66771428Y-104285714D01*
X66866666Y-104333333D01*
X66914285Y-104380952D01*
X66961904Y-104476190D01*
X66961904Y-104761904D01*
X66914285Y-104857142D01*
X66866666Y-104904761D01*
X66771428Y-104952380D01*
X66580952Y-104952380D01*
X66485714Y-104904761D01*
%TO.C,R1.2*%
X50822380Y-122160952D02*
X50346190Y-122494285D01*
X50822380Y-122732380D02*
X49822380Y-122732380D01*
X49822380Y-122351428D01*
X49870000Y-122256190D01*
X49917619Y-122208571D01*
X50012857Y-122160952D01*
X50155714Y-122160952D01*
X50250952Y-122208571D01*
X50298571Y-122256190D01*
X50346190Y-122351428D01*
X50346190Y-122732380D01*
X50822380Y-121208571D02*
X50822380Y-121780000D01*
X50822380Y-121494285D02*
X49822380Y-121494285D01*
X49965238Y-121589523D01*
X50060476Y-121684761D01*
X50108095Y-121780000D01*
X50727142Y-120780000D02*
X50774761Y-120732380D01*
X50822380Y-120780000D01*
X50774761Y-120827619D01*
X50727142Y-120780000D01*
X50822380Y-120780000D01*
X49917619Y-120351428D02*
X49870000Y-120303809D01*
X49822380Y-120208571D01*
X49822380Y-119970476D01*
X49870000Y-119875238D01*
X49917619Y-119827619D01*
X50012857Y-119780000D01*
X50108095Y-119780000D01*
X50250952Y-119827619D01*
X50822380Y-120399047D01*
X50822380Y-119780000D01*
%TO.C,-*%
X110319047Y-123671428D02*
X111080952Y-123671428D01*
%TO.C,SW1*%
X94904761Y-121333333D02*
X94952380Y-121190476D01*
X94952380Y-120952380D01*
X94904761Y-120857142D01*
X94857142Y-120809523D01*
X94761904Y-120761904D01*
X94666666Y-120761904D01*
X94571428Y-120809523D01*
X94523809Y-120857142D01*
X94476190Y-120952380D01*
X94428571Y-121142857D01*
X94380952Y-121238095D01*
X94333333Y-121285714D01*
X94238095Y-121333333D01*
X94142857Y-121333333D01*
X94047619Y-121285714D01*
X94000000Y-121238095D01*
X93952380Y-121142857D01*
X93952380Y-120904761D01*
X94000000Y-120761904D01*
X93952380Y-120428571D02*
X94952380Y-120190476D01*
X94238095Y-120000000D01*
X94952380Y-119809523D01*
X93952380Y-119571428D01*
X94952380Y-118666666D02*
X94952380Y-119238095D01*
X94952380Y-118952380D02*
X93952380Y-118952380D01*
X94095238Y-119047619D01*
X94190476Y-119142857D01*
X94238095Y-119238095D01*
%TO.C,-*%
X75619047Y-63671428D02*
X76380952Y-63671428D01*
%TO.C,Jump*%
X75371428Y-100252380D02*
X75371428Y-100966666D01*
X75323809Y-101109523D01*
X75228571Y-101204761D01*
X75085714Y-101252380D01*
X74990476Y-101252380D01*
X76276190Y-100585714D02*
X76276190Y-101252380D01*
X75847619Y-100585714D02*
X75847619Y-101109523D01*
X75895238Y-101204761D01*
X75990476Y-101252380D01*
X76133333Y-101252380D01*
X76228571Y-101204761D01*
X76276190Y-101157142D01*
X76752380Y-101252380D02*
X76752380Y-100585714D01*
X76752380Y-100680952D02*
X76800000Y-100633333D01*
X76895238Y-100585714D01*
X77038095Y-100585714D01*
X77133333Y-100633333D01*
X77180952Y-100728571D01*
X77180952Y-101252380D01*
X77180952Y-100728571D02*
X77228571Y-100633333D01*
X77323809Y-100585714D01*
X77466666Y-100585714D01*
X77561904Y-100633333D01*
X77609523Y-100728571D01*
X77609523Y-101252380D01*
X78085714Y-100585714D02*
X78085714Y-101585714D01*
X78085714Y-100633333D02*
X78180952Y-100585714D01*
X78371428Y-100585714D01*
X78466666Y-100633333D01*
X78514285Y-100680952D01*
X78561904Y-100776190D01*
X78561904Y-101061904D01*
X78514285Y-101157142D01*
X78466666Y-101204761D01*
X78371428Y-101252380D01*
X78180952Y-101252380D01*
X78085714Y-101204761D01*
%TO.C,SW2*%
X104704761Y-130433333D02*
X104752380Y-130290476D01*
X104752380Y-130052380D01*
X104704761Y-129957142D01*
X104657142Y-129909523D01*
X104561904Y-129861904D01*
X104466666Y-129861904D01*
X104371428Y-129909523D01*
X104323809Y-129957142D01*
X104276190Y-130052380D01*
X104228571Y-130242857D01*
X104180952Y-130338095D01*
X104133333Y-130385714D01*
X104038095Y-130433333D01*
X103942857Y-130433333D01*
X103847619Y-130385714D01*
X103800000Y-130338095D01*
X103752380Y-130242857D01*
X103752380Y-130004761D01*
X103800000Y-129861904D01*
X103752380Y-129528571D02*
X104752380Y-129290476D01*
X104038095Y-129100000D01*
X104752380Y-128909523D01*
X103752380Y-128671428D01*
X103847619Y-128338095D02*
X103800000Y-128290476D01*
X103752380Y-128195238D01*
X103752380Y-127957142D01*
X103800000Y-127861904D01*
X103847619Y-127814285D01*
X103942857Y-127766666D01*
X104038095Y-127766666D01*
X104180952Y-127814285D01*
X104752380Y-128385714D01*
X104752380Y-127766666D01*
D11*
%TO.C,R2.2*%
X52200000Y-117240000D02*
X52200000Y-118010000D01*
X50830000Y-118010000D02*
X50830000Y-124550000D01*
X53570000Y-118010000D02*
X50830000Y-118010000D01*
X50830000Y-124550000D02*
X53570000Y-124550000D01*
X52200000Y-125320000D02*
X52200000Y-124550000D01*
X53570000Y-124550000D02*
X53570000Y-118010000D01*
%TO.C,Jump*%
X73300000Y-100150000D02*
X73300000Y-98300000D01*
X71450000Y-98250000D02*
X71450000Y-100150000D01*
X73300000Y-98250000D02*
X71450000Y-98250000D01*
X71450000Y-100150000D02*
X73300000Y-100150000D01*
X73300000Y-98300000D02*
X73300000Y-98250000D01*
X72000000Y-102250000D02*
X70150000Y-102250000D01*
X70150000Y-104150000D02*
X72000000Y-104150000D01*
X70150000Y-102250000D02*
X70150000Y-104150000D01*
X72000000Y-104150000D02*
X72000000Y-102300000D01*
X72000000Y-102300000D02*
X72000000Y-102250000D01*
%TO.C,D2*%
X50570000Y-100455000D02*
X50570000Y-103545000D01*
X50570000Y-103544830D02*
G75*
G03*
X56120000Y-101999538I2560000J1544830D01*
G01*
X56120000Y-102000462D02*
G75*
G03*
X50570000Y-100455170I-2990000J462D01*
G01*
X55630000Y-102000000D02*
G75*
G03*
X55630000Y-102000000I-2500000J0D01*
G01*
%TO.C,pot2*%
X72110000Y-84410000D02*
X72110000Y-80390000D01*
X72110000Y-82910000D02*
X71110000Y-82910000D01*
X61590000Y-82210000D02*
X61590000Y-84710000D01*
X61590000Y-84710000D02*
X64090000Y-84710000D01*
X61890000Y-82100000D02*
X62390000Y-82100000D01*
X62390000Y-82100000D02*
X62390000Y-80890000D01*
X72110000Y-80390000D02*
X61890000Y-80390000D01*
X61890000Y-80390000D02*
X61890000Y-84410000D01*
X62390000Y-80890000D02*
X71610000Y-80890000D01*
X61890000Y-84410000D02*
X72110000Y-84410000D01*
X61890000Y-82910000D02*
X62890000Y-82910000D01*
X62890000Y-82910000D02*
X62890000Y-84410000D01*
X71610000Y-80890000D02*
X71610000Y-82100000D01*
X71610000Y-82100000D02*
X72110000Y-82100000D01*
X71110000Y-82910000D02*
X71110000Y-84410000D01*
%TO.C,SW3*%
X88490000Y-125230000D02*
X90400000Y-125230000D01*
X88490000Y-132090000D02*
X87100000Y-132090000D01*
X95230000Y-128910000D02*
X95230000Y-125230000D01*
X87100000Y-132090000D02*
X87100000Y-126500000D01*
X88200000Y-133700000D02*
X90400000Y-133700000D01*
X95230000Y-125230000D02*
X90400000Y-125230000D01*
X88490000Y-133360000D02*
X88490000Y-125230000D01*
X88490000Y-133360000D02*
X90400000Y-133360000D01*
X88490000Y-126500000D02*
X87100000Y-126500000D01*
X88200000Y-132400000D02*
X88200000Y-133700000D01*
X94970000Y-128910000D02*
X95230000Y-128910000D01*
X94970000Y-129680000D02*
X94970000Y-128910000D01*
X87350000Y-132090000D02*
X87350000Y-126500000D01*
X95230000Y-129680000D02*
X95230000Y-133360000D01*
X95230000Y-129680000D02*
X94970000Y-129680000D01*
X90400000Y-133360000D02*
X95230000Y-133360000D01*
X88240000Y-132090000D02*
X88240000Y-126500000D01*
%TO.C,pot3*%
X75890000Y-81910000D02*
X75890000Y-84410000D01*
X85910000Y-80590000D02*
X85910000Y-81800000D01*
X85910000Y-81800000D02*
X86410000Y-81800000D01*
X77190000Y-82610000D02*
X77190000Y-84110000D01*
X86410000Y-82610000D02*
X85410000Y-82610000D01*
X76690000Y-80590000D02*
X85910000Y-80590000D01*
X76190000Y-82610000D02*
X77190000Y-82610000D01*
X86410000Y-80090000D02*
X76190000Y-80090000D01*
X76190000Y-84110000D02*
X86410000Y-84110000D01*
X85410000Y-82610000D02*
X85410000Y-84110000D01*
X76190000Y-81800000D02*
X76690000Y-81800000D01*
X76690000Y-81800000D02*
X76690000Y-80590000D01*
X75890000Y-84410000D02*
X78390000Y-84410000D01*
X76190000Y-80090000D02*
X76190000Y-84110000D01*
X86410000Y-84110000D02*
X86410000Y-80090000D01*
%TO.C,pot 1*%
X80110000Y-77410000D02*
X80110000Y-73390000D01*
X80110000Y-75910000D02*
X79110000Y-75910000D01*
X69890000Y-75100000D02*
X70390000Y-75100000D01*
X79110000Y-75910000D02*
X79110000Y-77410000D01*
X69590000Y-77710000D02*
X72090000Y-77710000D01*
X70390000Y-73890000D02*
X79610000Y-73890000D01*
X79610000Y-75100000D02*
X80110000Y-75100000D01*
X79610000Y-73890000D02*
X79610000Y-75100000D01*
X70390000Y-75100000D02*
X70390000Y-73890000D01*
X69890000Y-73390000D02*
X69890000Y-77410000D01*
X70890000Y-75910000D02*
X70890000Y-77410000D01*
X69590000Y-75210000D02*
X69590000Y-77710000D01*
X69890000Y-77410000D02*
X80110000Y-77410000D01*
X80110000Y-73390000D02*
X69890000Y-73390000D01*
X69890000Y-75910000D02*
X70890000Y-75910000D01*
D12*
%TO.C,U2*%
X87460000Y-115810000D02*
X87460000Y-94855000D01*
X87460000Y-94855000D02*
X103335000Y-94855000D01*
X96350000Y-114540000D02*
X100160000Y-114540000D01*
X96350000Y-110730000D02*
X95715000Y-111365000D01*
X103335000Y-94855000D02*
X103335000Y-115810000D01*
X96350000Y-110730000D02*
X96985000Y-111365000D01*
X100160000Y-114540000D02*
X99525000Y-115175000D01*
X100160000Y-114540000D02*
X99525000Y-113905000D01*
X96350000Y-114540000D02*
X96350000Y-110730000D01*
X103335000Y-115810000D02*
X87460000Y-115810000D01*
D11*
%TO.C,U1*%
X81870000Y-125270000D02*
X81870000Y-92190000D01*
X84530000Y-92190000D02*
X84530000Y-87180000D01*
X61670000Y-92190000D02*
X61670000Y-93520000D01*
X61670000Y-94790000D02*
X61670000Y-125330000D01*
X84530000Y-125270000D02*
X81870000Y-125270000D01*
X59070000Y-87170000D02*
X84530000Y-87170000D01*
X59070000Y-92250000D02*
X59070000Y-87170000D01*
X59010000Y-94790000D02*
X61670000Y-94790000D01*
X60340000Y-92190000D02*
X61670000Y-92190000D01*
X84530000Y-125270000D02*
X84530000Y-92190000D01*
X59010000Y-94790000D02*
X59010000Y-125330000D01*
X84530000Y-92190000D02*
X81870000Y-92190000D01*
X59010000Y-125330000D02*
X61670000Y-125330000D01*
%TO.C,D1*%
X53290000Y-111345000D02*
X53290000Y-108255000D01*
X53290000Y-108255170D02*
G75*
G03*
X47740000Y-109800462I-2560000J-1544830D01*
G01*
X47740000Y-109799538D02*
G75*
G03*
X53290000Y-111344830I2990000J-462D01*
G01*
X53230000Y-109800000D02*
G75*
G03*
X53230000Y-109800000I-2500000J0D01*
G01*
%TO.C,Jump*%
X66100000Y-101800000D02*
X66100000Y-101750000D01*
X64250000Y-103650000D02*
X66100000Y-103650000D01*
X66100000Y-103650000D02*
X66100000Y-101800000D01*
X64250000Y-101750000D02*
X64250000Y-103650000D01*
X66100000Y-101750000D02*
X64250000Y-101750000D01*
%TO.C,R1.2*%
X49370000Y-124550000D02*
X49370000Y-118010000D01*
X46630000Y-124550000D02*
X49370000Y-124550000D01*
X48000000Y-125320000D02*
X48000000Y-124550000D01*
X48000000Y-117240000D02*
X48000000Y-118010000D01*
X49370000Y-118010000D02*
X46630000Y-118010000D01*
X46630000Y-118010000D02*
X46630000Y-124550000D01*
%TO.C,SW1*%
X88890000Y-124360000D02*
X90800000Y-124360000D01*
X95630000Y-116230000D02*
X90800000Y-116230000D01*
X87500000Y-123090000D02*
X87500000Y-117500000D01*
X95370000Y-120680000D02*
X95370000Y-119910000D01*
X95630000Y-119910000D02*
X95630000Y-116230000D01*
X88640000Y-123090000D02*
X88640000Y-117500000D01*
X95370000Y-119910000D02*
X95630000Y-119910000D01*
X88890000Y-124360000D02*
X88890000Y-116230000D01*
X90800000Y-124360000D02*
X95630000Y-124360000D01*
X95630000Y-120680000D02*
X95630000Y-124360000D01*
X88600000Y-124700000D02*
X90800000Y-124700000D01*
X88890000Y-123090000D02*
X87500000Y-123090000D01*
X95630000Y-120680000D02*
X95370000Y-120680000D01*
X88600000Y-123400000D02*
X88600000Y-124700000D01*
X88890000Y-116230000D02*
X90800000Y-116230000D01*
X87750000Y-123090000D02*
X87750000Y-117500000D01*
X88890000Y-117500000D02*
X87500000Y-117500000D01*
%TO.C,Jump*%
X75850000Y-99950000D02*
X77700000Y-99950000D01*
X75850000Y-98050000D02*
X75850000Y-99950000D01*
X77700000Y-98050000D02*
X75850000Y-98050000D01*
X77700000Y-98100000D02*
X77700000Y-98050000D01*
X77700000Y-99950000D02*
X77700000Y-98100000D01*
%TO.C,SW2*%
X98440000Y-132090000D02*
X98440000Y-126500000D01*
X98690000Y-133360000D02*
X98690000Y-125230000D01*
X105430000Y-125230000D02*
X100600000Y-125230000D01*
X97550000Y-132090000D02*
X97550000Y-126500000D01*
X97300000Y-132090000D02*
X97300000Y-126500000D01*
X98690000Y-126500000D02*
X97300000Y-126500000D01*
X105430000Y-129680000D02*
X105430000Y-133360000D01*
X105170000Y-129680000D02*
X105170000Y-128910000D01*
X98400000Y-132400000D02*
X98400000Y-133700000D01*
X98690000Y-125230000D02*
X100600000Y-125230000D01*
X98690000Y-132090000D02*
X97300000Y-132090000D01*
X98690000Y-133360000D02*
X100600000Y-133360000D01*
X100600000Y-133360000D02*
X105430000Y-133360000D01*
X98400000Y-133700000D02*
X100600000Y-133700000D01*
X105430000Y-128910000D02*
X105430000Y-125230000D01*
X105170000Y-128910000D02*
X105430000Y-128910000D01*
X105430000Y-129680000D02*
X105170000Y-129680000D01*
%TD*%
M02*
