M48
; DRILL file {KiCad 6.0.11-2627ca5db0~126~ubuntu20.04.1} date Mon 12 Feb 2024 11:33:53 PM CET
; FORMAT={-:-/ absolute / inch / decimal}
; #@! TF.CreationDate,2024-02-12T23:33:53+01:00
; #@! TF.GenerationSoftware,Kicad,Pcbnew,6.0.11-2627ca5db0~126~ubuntu20.04.1
; #@! TF.FileFunction,Plated,1,2,PTH
FMAT,2
INCH
; #@! TA.AperFunction,Plated,PTH,ViaDrill
T1C0.0157
; #@! TA.AperFunction,Plated,PTH,ComponentDrill
T2C0.0276
; #@! TA.AperFunction,Plated,PTH,ComponentDrill
T3C0.0315
; #@! TA.AperFunction,Plated,PTH,ComponentDrill
T4C0.0354
; #@! TA.AperFunction,Plated,PTH,ComponentDrill
T5C0.0374
; #@! TA.AperFunction,Plated,PTH,ComponentDrill
T6C0.0394
; #@! TA.AperFunction,Plated,PTH,ComponentDrill
T7C0.0689
%
G90
G05
T1
X2.5669Y-4.1024
X2.748Y-4.1024
X2.8504Y-4.0157
X3.0236Y-4.0157
T2
X2.5669Y-4.0433
X2.7992Y-4.063
X2.8504Y-3.9055
X3.0236Y-3.8976
T3
X1.8898Y-4.5748
X1.8898Y-4.9748
X2.0551Y-4.5748
X2.0551Y-4.9748
X3.5433Y-3.8094
X3.5433Y-3.9094
X3.5433Y-4.0094
X3.5433Y-4.1094
X3.5433Y-4.2094
X3.5433Y-4.3094
X3.5433Y-4.4094
X3.5433Y-4.5094
T4
X1.9472Y-4.3228
X2.0417Y-4.0157
X2.0472Y-4.3228
X2.1417Y-4.0157
T5
X2.5394Y-3.2323
X2.6378Y-3.2323
X2.7362Y-3.2323
X2.8543Y-2.9567
X2.9528Y-2.9567
X3.0512Y-2.9567
X3.1024Y-3.2205
X3.2008Y-3.2205
X3.2992Y-3.2205
T6
X2.3756Y-3.6819
X2.3756Y-3.7819
X2.3756Y-3.8819
X2.3756Y-3.9819
X2.3756Y-4.0819
X2.3756Y-4.1819
X2.3756Y-4.2819
X2.3756Y-4.3819
X2.3756Y-4.4819
X2.3756Y-4.5819
X2.3756Y-4.6819
X2.3756Y-4.7819
X2.3756Y-4.8819
X3.2756Y-3.6819
X3.2756Y-3.7819
X3.2756Y-3.8819
X3.2756Y-3.9819
X3.2756Y-4.0819
X3.2756Y-4.1819
X3.2756Y-4.2819
X3.2756Y-4.3819
X3.2756Y-4.4819
X3.2756Y-4.5819
X3.2756Y-4.6819
X3.2756Y-4.7819
X3.2756Y-4.8819
T7
X3.5591Y-5.0126
X3.5591Y-5.1654
X3.5748Y-4.6583
X3.5748Y-4.811
X3.9606Y-5.0126
X3.9606Y-5.1654
T0
M30
