%TF.GenerationSoftware,KiCad,Pcbnew,6.0.11-2627ca5db0~126~ubuntu20.04.1*%
%TF.CreationDate,2024-02-12T23:33:47+01:00*%
%TF.ProjectId,PCB,5043422e-6b69-4636-9164-5f7063625858,rev?*%
%TF.SameCoordinates,Original*%
%TF.FileFunction,Copper,L2,Bot*%
%TF.FilePolarity,Positive*%
%FSLAX46Y46*%
G04 Gerber Fmt 4.6, Leading zero omitted, Abs format (unit mm)*
G04 Created by KiCad (PCBNEW 6.0.11-2627ca5db0~126~ubuntu20.04.1) date 2024-02-12 23:33:47*
%MOMM*%
%LPD*%
G01*
G04 APERTURE LIST*
G04 Aperture macros list*
%AMRoundRect*
0 Rectangle with rounded corners*
0 $1 Rounding radius*
0 $2 $3 $4 $5 $6 $7 $8 $9 X,Y pos of 4 corners*
0 Add a 4 corners polygon primitive as box body*
4,1,4,$2,$3,$4,$5,$6,$7,$8,$9,$2,$3,0*
0 Add four circle primitives for the rounded corners*
1,1,$1+$1,$2,$3*
1,1,$1+$1,$4,$5*
1,1,$1+$1,$6,$7*
1,1,$1+$1,$8,$9*
0 Add four rect primitives between the rounded corners*
20,1,$1+$1,$2,$3,$4,$5,0*
20,1,$1+$1,$4,$5,$6,$7,0*
20,1,$1+$1,$6,$7,$8,$9,0*
20,1,$1+$1,$8,$9,$2,$3,0*%
G04 Aperture macros list end*
%TA.AperFunction,ComponentPad*%
%ADD10C,1.600000*%
%TD*%
%TA.AperFunction,ComponentPad*%
%ADD11O,1.600000X1.600000*%
%TD*%
%TA.AperFunction,ComponentPad*%
%ADD12C,1.400000*%
%TD*%
%TA.AperFunction,ComponentPad*%
%ADD13R,1.800000X1.800000*%
%TD*%
%TA.AperFunction,ComponentPad*%
%ADD14C,1.800000*%
%TD*%
%TA.AperFunction,ComponentPad*%
%ADD15RoundRect,0.250000X-0.600000X-0.725000X0.600000X-0.725000X0.600000X0.725000X-0.600000X0.725000X0*%
%TD*%
%TA.AperFunction,ComponentPad*%
%ADD16O,1.700000X1.950000*%
%TD*%
%TA.AperFunction,ComponentPad*%
%ADD17R,3.000000X3.000000*%
%TD*%
%TA.AperFunction,ComponentPad*%
%ADD18C,3.000000*%
%TD*%
%TA.AperFunction,ComponentPad*%
%ADD19O,3.556000X1.778000*%
%TD*%
%TA.AperFunction,ComponentPad*%
%ADD20R,1.700000X1.700000*%
%TD*%
%TA.AperFunction,ComponentPad*%
%ADD21O,1.700000X1.700000*%
%TD*%
%TA.AperFunction,ComponentPad*%
%ADD22C,1.700000*%
%TD*%
%TA.AperFunction,ViaPad*%
%ADD23C,0.800000*%
%TD*%
%TA.AperFunction,Conductor*%
%ADD24C,0.500000*%
%TD*%
G04 APERTURE END LIST*
D10*
%TO.P,R2.2,1*%
%TO.N,Net-(D2-Pad2)*%
X52200000Y-116200000D03*
D11*
%TO.P,R2.2,2*%
%TO.N,Net-(R2.2-Pad2)*%
X52200000Y-126360000D03*
%TD*%
D12*
%TO.P,Jump,1*%
%TO.N,N/C*%
X72400000Y-99200000D03*
%TD*%
%TO.P,Jump,1*%
%TO.N,N/C*%
X71100000Y-103200000D03*
%TD*%
D13*
%TO.P,D2,1,K*%
%TO.N,GND*%
X51860000Y-102000000D03*
D14*
%TO.P,D2,2,A*%
%TO.N,Net-(D2-Pad2)*%
X54400000Y-102000000D03*
%TD*%
D15*
%TO.P,pot2,1,1*%
%TO.N,GND*%
X64500000Y-82100000D03*
D16*
%TO.P,pot2,2,2*%
%TO.N,Net-(RV2-Pad2)*%
X67000000Y-82100000D03*
%TO.P,pot2,3,3*%
%TO.N,VCC*%
X69500000Y-82100000D03*
%TD*%
D17*
%TO.P,SW3,1*%
%TO.N,Net-(SW3-Pad1)*%
X90400000Y-131200000D03*
D18*
%TO.P,SW3,2*%
%TO.N,GND*%
X90400000Y-127320000D03*
%TD*%
D15*
%TO.P,pot3,1,1*%
%TO.N,GND*%
X78800000Y-81800000D03*
D16*
%TO.P,pot3,2,2*%
%TO.N,Net-(RV3-Pad2)*%
X81300000Y-81800000D03*
%TO.P,pot3,3,3*%
%TO.N,VCC*%
X83800000Y-81800000D03*
%TD*%
D15*
%TO.P,pot 1,1,1*%
%TO.N,GND*%
X72500000Y-75100000D03*
D16*
%TO.P,pot 1,2,2*%
%TO.N,Net-(RV1-Pad2)*%
X75000000Y-75100000D03*
%TO.P,pot 1,3,3*%
%TO.N,VCC*%
X77500000Y-75100000D03*
%TD*%
D19*
%TO.P,U2,ADO,ADO*%
%TO.N,unconnected-(U2-PadADO)*%
X90000000Y-112000000D03*
%TO.P,U2,GND,GND*%
%TO.N,GND*%
X90000000Y-99300000D03*
%TO.P,U2,INT,INT*%
%TO.N,unconnected-(U2-PadINT)*%
X90000000Y-114540000D03*
%TO.P,U2,SCL,SCL*%
%TO.N,Net-(U1-Pad25)*%
X90000000Y-101840000D03*
%TO.P,U2,SDA,SDA*%
%TO.N,Net-(U1-Pad24)*%
X90000000Y-104380000D03*
%TO.P,U2,VCC,VCC*%
%TO.N,VCC*%
X90000000Y-96760000D03*
%TO.P,U2,XCL,XCL*%
%TO.N,unconnected-(U2-PadXCL)*%
X90000000Y-109460000D03*
%TO.P,U2,XDA,XDA*%
%TO.N,unconnected-(U2-PadXDA)*%
X90000000Y-106920000D03*
%TD*%
D20*
%TO.P,U1,1,VP*%
%TO.N,unconnected-(U1-Pad1)*%
X60340000Y-93520000D03*
D21*
%TO.P,U1,2,VN*%
%TO.N,unconnected-(U1-Pad2)*%
X60340000Y-96060000D03*
%TO.P,U1,3,EN*%
%TO.N,unconnected-(U1-Pad3)*%
X60340000Y-98600000D03*
%TO.P,U1,4,34*%
%TO.N,unconnected-(U1-Pad4)*%
X60340000Y-101140000D03*
%TO.P,U1,5,35*%
%TO.N,unconnected-(U1-Pad5)*%
X60340000Y-103680000D03*
%TO.P,U1,6,32*%
%TO.N,unconnected-(U1-Pad6)*%
X60340000Y-106220000D03*
%TO.P,U1,7,33*%
%TO.N,Net-(R1.2-Pad2)*%
X60340000Y-108760000D03*
%TO.P,U1,8,25*%
%TO.N,Net-(R2.2-Pad2)*%
X60340000Y-111300000D03*
%TO.P,U1,9,26*%
%TO.N,unconnected-(U1-Pad9)*%
X60340000Y-113840000D03*
%TO.P,U1,10,27*%
%TO.N,unconnected-(U1-Pad10)*%
X60340000Y-116380000D03*
%TO.P,U1,11,14*%
%TO.N,unconnected-(U1-Pad11)*%
X60340000Y-118920000D03*
%TO.P,U1,12,12*%
%TO.N,unconnected-(U1-Pad12)*%
X60340000Y-121460000D03*
%TO.P,U1,13,GND*%
%TO.N,GND*%
X60340000Y-124000000D03*
D22*
%TO.P,U1,14,13*%
%TO.N,Net-(SW3-Pad1)*%
X83200000Y-124000000D03*
D21*
%TO.P,U1,15,15*%
%TO.N,Net-(RV2-Pad2)*%
X83200000Y-121460000D03*
%TO.P,U1,16,2*%
%TO.N,Net-(SW2-Pad1)*%
X83200000Y-118920000D03*
%TO.P,U1,17,0*%
%TO.N,Net-(RV1-Pad2)*%
X83200000Y-116380000D03*
%TO.P,U1,18,4*%
%TO.N,Net-(SW1-Pad1)*%
X83200000Y-113840000D03*
%TO.P,U1,19,16*%
%TO.N,Net-(RV3-Pad2)*%
X83200000Y-111300000D03*
%TO.P,U1,20,17*%
%TO.N,unconnected-(U1-Pad20)*%
X83200000Y-108760000D03*
%TO.P,U1,21,5*%
%TO.N,unconnected-(U1-Pad21)*%
X83200000Y-106220000D03*
%TO.P,U1,22,18*%
%TO.N,unconnected-(U1-Pad22)*%
X83200000Y-103680000D03*
%TO.P,U1,23,23*%
%TO.N,unconnected-(U1-Pad23)*%
X83200000Y-101140000D03*
%TO.P,U1,24,19*%
%TO.N,Net-(U1-Pad24)*%
X83200000Y-98600000D03*
%TO.P,U1,25,22*%
%TO.N,Net-(U1-Pad25)*%
X83200000Y-96060000D03*
%TO.P,U1,26,3v3*%
%TO.N,VCC*%
X83200000Y-93520000D03*
%TD*%
D13*
%TO.P,D1,1,K*%
%TO.N,GND*%
X52000000Y-109800000D03*
D14*
%TO.P,D1,2,A*%
%TO.N,Net-(D1-Pad2)*%
X49460000Y-109800000D03*
%TD*%
D12*
%TO.P,Jump,1*%
%TO.N,N/C*%
X65200000Y-102700000D03*
%TD*%
D10*
%TO.P,R1.2,1*%
%TO.N,Net-(D1-Pad2)*%
X48000000Y-116200000D03*
D11*
%TO.P,R1.2,2*%
%TO.N,Net-(R1.2-Pad2)*%
X48000000Y-126360000D03*
%TD*%
D17*
%TO.P,SW1,1*%
%TO.N,Net-(SW1-Pad1)*%
X90800000Y-122200000D03*
D18*
%TO.P,SW1,2*%
%TO.N,GND*%
X90800000Y-118320000D03*
%TD*%
D12*
%TO.P,Jump,1*%
%TO.N,N/C*%
X76800000Y-99000000D03*
%TD*%
D17*
%TO.P,SW2,1*%
%TO.N,Net-(SW2-Pad1)*%
X100600000Y-131200000D03*
D18*
%TO.P,SW2,2*%
%TO.N,GND*%
X100600000Y-127320000D03*
%TD*%
D23*
%TO.N,GND*%
X65200000Y-104200000D03*
X69800000Y-104200000D03*
X76800000Y-102000000D03*
X72400000Y-102000000D03*
%TD*%
D24*
%TO.N,GND*%
X65200000Y-104200000D02*
X69800000Y-104200000D01*
X76800000Y-102000000D02*
X72400000Y-102000000D01*
%TD*%
M02*
